<?xml version="1.0" encoding="utf-8"?>
<!-- Generator: Adobe Illustrator 27.2.0, SVG Export Plug-In . SVG Version: 6.00 Build 0)  -->
<svg version="1.1" xmlns="http://www.w3.org/2000/svg" xmlns:xlink="http://www.w3.org/1999/xlink" x="0px" y="0px"
	 viewBox="0 0 1920 1080" enable-background="new 0 0 1920 1080" xml:space="preserve">
<g>
	<polygon fill="#22B573" stroke="#000000" stroke-miterlimit="10" points="927.95,79.11 927.95,124.21 978.19,122.23 974.23,76.34 	
		"/>
	<polygon fill="#22B573" stroke="#000000" stroke-miterlimit="10" points="1018.93,72.38 974.23,76.34 978.19,122.23 
		1023.29,119.46 	"/>
	<polygon fill="#22B573" stroke="#000000" stroke-miterlimit="10" points="1064.82,70.01 1018.93,72.38 1023.29,119.46 
		1067.59,116.3 	"/>
	<polygon fill="#22B573" stroke="#000000" stroke-miterlimit="10" points="1109.92,66.45 1064.82,70.01 1067.59,116.3 
		1112.69,113.53 	"/>
	<polygon fill="#22B573" stroke="#000000" stroke-miterlimit="10" points="1154.63,63.29 1109.92,66.45 1112.69,113.53 
		1157.4,110.36 	"/>
	<polygon fill="#22B573" stroke="#000000" stroke-miterlimit="10" points="1189.04,60.91 1154.63,63.29 1157.4,110.36 
		1202.89,106.8 	"/>
	<polygon fill="#22B573" stroke="#000000" stroke-miterlimit="10" points="972.25,139.64 929.53,142.01 929.53,177.22 
		974.23,177.22 	"/>
	<polygon fill="#22B573" stroke="#000000" stroke-miterlimit="10" points="1015.77,135.29 972.25,139.64 974.23,177.22 
		1018.93,174.85 	"/>
	<polygon fill="#22B573" stroke="#000000" stroke-miterlimit="10" points="1074.71,132.12 1029.62,135.29 1031.99,174.05 
		1077.09,170.89 	"/>
	<polygon fill="#22B573" stroke="#000000" stroke-miterlimit="10" points="1119.02,128.16 1074.71,132.12 1077.09,170.89 
		1121.4,168.52 	"/>
	<polygon fill="#22B573" stroke="#000000" stroke-miterlimit="10" points="1162.54,126.19 1119.02,128.16 1121.4,168.52 
		1164.52,164.56 	"/>
	<polygon fill="#22B573" stroke="#000000" stroke-miterlimit="10" points="1185.48,163.37 1164.52,164.56 1162.54,126.19 
		1209.62,122.23 1219.9,151.11 	"/>
	<polygon fill="#22B573" stroke="#000000" stroke-miterlimit="10" points="1229,177.22 1219.9,151.11 1185.48,163.37 1194.98,187.9 
			"/>
	<polygon fill="#22B573" stroke="#000000" stroke-miterlimit="10" points="1238.1,201.35 1229,177.22 1194.98,187.9 1205.26,213.62 
			"/>
	<polygon fill="#22B573" stroke="#000000" stroke-miterlimit="10" points="1248.78,230.63 1238.1,201.35 1205.26,213.62 
		1213.97,238.93 1219.9,236.16 	"/>
	<polygon fill="#22B573" stroke="#000000" stroke-miterlimit="10" points="1266.19,278.89 1248.78,230.63 1219.9,236.16 
		1213.97,238.93 1216.54,264.65 	"/>
	<polygon fill="#22B573" stroke="#000000" stroke-miterlimit="10" points="1254.32,309.35 1266.19,278.89 1216.54,264.65 
		1209.62,289.18 	"/>
	<polygon fill="#22B573" stroke="#000000" stroke-miterlimit="10" points="1237.9,333.48 1241.66,329.53 1254.32,309.35 
		1209.62,289.18 1197.35,309.35 	"/>
	<polygon fill="#22B573" stroke="#000000" stroke-miterlimit="10" points="1221.88,344.96 1237.9,333.48 1197.35,309.35 
		1185.48,330.32 1219.9,351.29 	"/>
	<polygon fill="#22B573" stroke="#000000" stroke-miterlimit="10" points="1213.97,371.46 1219.9,351.29 1185.48,330.32 
		1174.41,351.29 1198.93,369.48 	"/>
	<polygon fill="#22B573" stroke="#000000" stroke-miterlimit="10" points="1176.91,401.4 1198.93,369.48 1174.41,351.29 
		1152.65,388.74 1174.41,403.77 	"/>
	<polygon fill="#22B573" stroke="#000000" stroke-miterlimit="10" points="1224.25,383.73 1213.97,371.46 1198.93,369.48 
		1174.41,403.77 1171.24,412.6 1189.44,429.62 	"/>
	<polygon fill="#22B573" stroke="#000000" stroke-miterlimit="10" points="1244.03,406.67 1224.25,383.73 1189.44,429.62 
		1209.62,445.84 	"/>
	<polygon fill="#22B573" stroke="#000000" stroke-miterlimit="10" points="1268.96,424.87 1244.03,406.67 1209.62,445.84 
		1229,464.82 	"/>
	<polygon fill="#22B573" stroke="#000000" stroke-miterlimit="10" points="1291.11,445.84 1286.36,437.92 1268.96,424.87 
		1229,464.82 1244.03,483.81 	"/>
	<polygon fill="#22B573" stroke="#000000" stroke-miterlimit="10" points="1307.73,469.57 1291.11,445.84 1244.03,483.81 
		1261.84,503.2 	"/>
	<polygon fill="#22B573" stroke="#000000" stroke-miterlimit="10" points="1331.86,509.13 1315.64,479.46 1270.93,513.88 
		1284.38,538.01 	"/>
	<polygon fill="#22B573" stroke="#000000" stroke-miterlimit="10" points="1345.9,538.01 1331.86,509.13 1284.38,538.01 
		1297.84,563.53 	"/>
	<polygon fill="#22B573" stroke="#000000" stroke-miterlimit="10" points="1360.74,568.87 1345.9,538.01 1297.84,563.53 
		1309.51,589.44 	"/>
	<polygon fill="#22B573" stroke="#000000" stroke-miterlimit="10" points="1367.46,600.52 1360.74,568.87 1309.51,589.44 
		1320.98,616.74 	"/>
	<polygon fill="#22B573" stroke="#000000" stroke-miterlimit="10" points="1377.35,630.98 1368.65,610.6 1367.46,600.52 
		1320.98,616.74 1327.11,644.43 	"/>
	<polygon fill="#22B573" stroke="#000000" stroke-miterlimit="10" points="1388.82,663.42 1377.35,630.98 1327.11,644.43 
		1333.84,671.92 	"/>
	<polygon fill="#22B573" stroke="#000000" stroke-miterlimit="10" points="1394.96,695.26 1388.82,663.42 1333.84,671.92 
		1338.48,702.19 	"/>
	<polygon fill="#22B573" stroke="#000000" stroke-miterlimit="10" points="1401.29,728.3 1394.96,695.26 1338.48,702.19 
		1339.77,730.67 	"/>
	<polygon fill="#22B573" stroke="#000000" stroke-miterlimit="10" points="1407.81,762.32 1401.29,728.3 1339.77,730.67 
		1339.77,759.75 	"/>
	<polygon fill="#22B573" stroke="#000000" stroke-miterlimit="10" points="1373.79,774.78 1409.99,776.96 1413.35,832.93 
		1372.21,824.43 	"/>
	<polygon fill="#22B573" stroke="#000000" stroke-miterlimit="10" points="1338.48,772.8 1373.79,774.78 1372.21,824.43 
		1331.26,815.33 	"/>
	<polygon fill="#22B573" stroke="#000000" stroke-miterlimit="10" points="1410.98,884.36 1414.74,844.41 1413.35,832.93 
		1389.54,828.01 1376.16,873.09 	"/>
	<polygon fill="#22B573" stroke="#000000" stroke-miterlimit="10" points="1348.47,865.37 1376.16,873.09 1389.54,828.01 
		1361.8,822.12 	"/>
	<polygon fill="#22B573" stroke="#000000" stroke-miterlimit="10" points="1323.55,858.25 1331.26,815.33 1361.8,822.12 
		1348.47,865.37 	"/>
	<polygon fill="#22B573" stroke="#000000" stroke-miterlimit="10" points="1403.66,938.36 1407.81,898.01 1381.9,890.49 
		1370.43,928.67 	"/>
	<polygon fill="#22B573" stroke="#000000" stroke-miterlimit="10" points="1357.97,882.38 1381.9,890.49 1370.43,928.67 
		1346.3,920.96 	"/>
	<polygon fill="#22B573" stroke="#000000" stroke-miterlimit="10" points="1333.64,875.07 1357.97,882.38 1346.3,920.96 
		1319.4,912.85 	"/>
	<polygon fill="#22B573" stroke="#000000" stroke-miterlimit="10" points="1308.12,867.35 1333.64,875.07 1319.4,912.85 
		1296.05,905.53 	"/>
	<polygon fill="#22B573" stroke="#000000" stroke-miterlimit="10" points="1283.79,859.44 1308.12,867.35 1296.05,905.53 
		1271.73,898.01 	"/>
	<polygon fill="#22B573" stroke="#000000" stroke-miterlimit="10" points="1246.01,851.53 1259.26,851.53 1283.79,859.44 
		1271.73,898.01 1246.01,890.49 	"/>
	<polygon fill="#22B573" stroke="#000000" stroke-miterlimit="10" points="1310.3,853.51 1320.38,816.71 1298.63,809 
		1286.36,845.99 	"/>
	<polygon fill="#22B573" stroke="#000000" stroke-miterlimit="10" points="1326.12,772.8 1320.38,816.71 1282.21,803.86 
		1283.79,769.84 	"/>
	<polygon fill="#22B573" stroke="#000000" stroke-miterlimit="10" points="1241.86,767.66 1283.79,769.84 1282.21,802.87 
		1245.22,793.27 	"/>
	<polygon fill="#22B573" stroke="#000000" stroke-miterlimit="10" points="1262.82,838.47 1272.83,800.44 1298.63,809 
		1286.36,845.99 	"/>
	<polygon fill="#22B573" stroke="#000000" stroke-miterlimit="10" points="1246.01,838.47 1262.82,838.47 1272.83,800.44 
		1245.22,793.27 	"/>
	<polygon fill="#22B573" stroke="#000000" stroke-miterlimit="10" points="1282.21,757.97 1327.11,757.97 1327.11,728.3 
		1283.79,728.89 	"/>
	<polygon fill="#22B573" stroke="#000000" stroke-miterlimit="10" points="1324.74,693.48 1281.22,699.42 1283.79,728.89 
		1327.11,728.3 	"/>
	<polygon fill="#22B573" stroke="#000000" stroke-miterlimit="10" points="1319,660.65 1275.88,672.71 1281.22,699.42 
		1324.74,693.48 	"/>
	<polygon fill="#22B573" stroke="#000000" stroke-miterlimit="10" points="1311.95,630.98 1319,660.65 1275.88,672.71 
		1270.93,645.62 	"/>
	<polygon fill="#22B573" stroke="#000000" stroke-miterlimit="10" points="1240.21,756.65 1282.21,757.97 1283.79,728.89 
		1281.22,699.42 1225.97,717.35 1237.04,738.71 	"/>
	<polygon fill="#22B573" stroke="#000000" stroke-miterlimit="10" points="1241.86,653.79 1270.93,645.62 1281.22,699.42 
		1259.03,706.62 	"/>
	<polygon fill="#22B573" stroke="#000000" stroke-miterlimit="10" points="1218.58,661.97 1235.01,714.42 1259.03,706.62 
		1241.86,653.79 	"/>
	<polygon fill="#22B573" stroke="#000000" stroke-miterlimit="10" points="1195.37,669.35 1218.58,661.97 1235.01,714.42 
		1225.97,717.35 1215.19,700.21 1204.34,696.52 	"/>
	<polygon fill="#22B573" stroke="#000000" stroke-miterlimit="10" points="1159.77,681.22 1195.37,669.35 1204.34,696.52 
		1201.44,704.69 1159.77,704.69 	"/>
	<polygon fill="#22B573" stroke="#000000" stroke-miterlimit="10" points="1206.71,730.67 1200.12,708.38 1201.44,704.69 
		1159.77,704.69 1159.77,730.67 	"/>
	<polygon fill="#22B573" stroke="#000000" stroke-miterlimit="10" points="1211.46,756.12 1206.71,730.67 1159.77,730.67 
		1159.77,756.12 	"/>
	<rect x="1159.77" y="756.12" fill="#22B573" stroke="#000000" stroke-miterlimit="10" width="51.69" height="26.37"/>
	<polygon fill="#22B573" stroke="#000000" stroke-miterlimit="10" points="1206.71,809.92 1211.46,782.49 1159.77,782.49 
		1159.77,809 	"/>
	<polygon fill="#22B573" stroke="#000000" stroke-miterlimit="10" points="1202.23,836.82 1206.71,809.92 1159.77,809 
		1159.77,836.82 	"/>
	<polygon fill="#22B573" stroke="#000000" stroke-miterlimit="10" points="1201.44,847.6 1205.4,892.21 1196.69,890.1 
		1174.54,912.85 1177.18,847.6 	"/>
	<polygon fill="#22B573" stroke="#000000" stroke-miterlimit="10" points="1147.9,898.01 1150.8,845.99 1177.18,847.6 
		1174.54,912.85 1171.9,914.43 	"/>
	<polygon fill="#22B573" stroke="#000000" stroke-miterlimit="10" points="1122.05,898.01 1147.9,898.01 1150.8,845.99 
		1125.22,845.99 	"/>
	<polygon fill="#22B573" stroke="#000000" stroke-miterlimit="10" points="1096.47,891.95 1100.96,895.37 1114.41,898.01 
		1122.05,898.01 1125.22,845.99 1097.79,844.21 	"/>
	<polygon fill="#22B573" stroke="#000000" stroke-miterlimit="10" points="1070.63,877.7 1096.47,891.95 1097.79,844.21 
		1070.63,842.89 	"/>
	<polygon fill="#22B573" stroke="#000000" stroke-miterlimit="10" points="1045.31,876.38 1070.63,877.7 1070.63,842.89 
		1046.63,841.57 	"/>
	<polygon fill="#22B573" stroke="#000000" stroke-miterlimit="10" points="1019.73,841.57 1046.63,841.57 1045.31,876.38 
		1026.58,877.7 1018.41,883.24 	"/>
	<polygon fill="#22B573" stroke="#000000" stroke-miterlimit="10" points="992.82,839.46 1019.73,841.57 1018.41,883.24 
		990.98,898.01 	"/>
	<polygon fill="#22B573" stroke="#000000" stroke-miterlimit="10" points="968.03,839.46 992.82,839.46 990.98,898.01 986.49,901.7 
		966.45,893.53 	"/>
	<polygon fill="#22B573" stroke="#000000" stroke-miterlimit="10" points="942.19,885.35 962.23,890.1 966.45,893.53 968.03,839.46 
		942.19,837.88 	"/>
	<polygon fill="#22B573" stroke="#000000" stroke-miterlimit="10" points="927.95,836.82 942.19,837.88 942.19,885.35 
		927.95,883.24 913.18,851.33 	"/>
	<polygon fill="#22B573" stroke="#000000" stroke-miterlimit="10" points="920.3,883.24 927.95,883.24 913.18,851.33 890.76,872 
		911.33,896.16 	"/>
	<polygon fill="#22B573" stroke="#000000" stroke-miterlimit="10" points="890.76,921.22 906.05,906.45 911.33,896.16 890.76,872 
		869.92,886.67 	"/>
	<polygon fill="#22B573" stroke="#000000" stroke-miterlimit="10" points="866.76,930.98 890.76,921.22 869.92,886.67 
		846.71,896.16 855.68,930.98 	"/>
	<polygon fill="#22B573" stroke="#000000" stroke-miterlimit="10" points="822.98,899.07 846.71,896.16 855.68,930.98 
		822.98,930.98 	"/>
	<polygon fill="#22B573" stroke="#000000" stroke-miterlimit="10" points="822.98,954.98 822.98,930.98 866.76,930.98 
		857.53,954.98 837.35,971.99 	"/>
	<polygon fill="#22B573" stroke="#000000" stroke-miterlimit="10" points="1147.9,834.91 1146.91,798.71 1125.22,798.71 
		1123.97,833.53 	"/>
	<polygon fill="#22B573" stroke="#000000" stroke-miterlimit="10" points="1102.41,797.33 1125.22,798.71 1123.97,833.53 
		1099.84,832.54 	"/>
	<polygon fill="#22B573" stroke="#000000" stroke-miterlimit="10" points="1079.66,796.21 1102.41,797.33 1099.84,832.54 
		1078.67,832.54 	"/>
	<polygon fill="#22B573" stroke="#000000" stroke-miterlimit="10" points="1054.74,794.56 1079.66,796.21 1078.67,832.54 
		1054.74,830.96 	"/>
	<polygon fill="#22B573" stroke="#000000" stroke-miterlimit="10" points="1032.52,794.56 1054.74,794.56 1054.74,830.96 
		1030.8,829.57 	"/>
	<polygon fill="#22B573" stroke="#000000" stroke-miterlimit="10" points="1009.64,793.27 1032.52,794.56 1030.8,829.57 
		1008.25,829.57 	"/>
	<polygon fill="#22B573" stroke="#000000" stroke-miterlimit="10" points="987.09,791.59 1009.64,793.27 1008.25,829.57 
		985.31,828.19 	"/>
	<polygon fill="#22B573" stroke="#000000" stroke-miterlimit="10" points="955.11,826.01 985.31,828.19 987.09,791.59 
		983.13,787.64 951.88,815.43 	"/>
	<polygon fill="#22B573" stroke="#000000" stroke-miterlimit="10" points="1023.88,762.52 1023.88,794.08 987.09,791.59 
		983.13,787.64 992.82,778.3 1009.64,767.66 	"/>
	<polygon fill="#22B573" stroke="#000000" stroke-miterlimit="10" points="1049.2,759.35 1048.01,794.56 1023.88,794.08 
		1023.88,762.52 	"/>
	<polygon fill="#22B573" stroke="#000000" stroke-miterlimit="10" points="1074.71,759.35 1073.31,795.79 1048.01,794.56 
		1049.2,759.35 	"/>
	<polygon fill="#22B573" stroke="#000000" stroke-miterlimit="10" points="1098.85,761.13 1074.71,759.35 1073.31,795.79 
		1097.79,797.1 	"/>
	<polygon fill="#22B573" stroke="#000000" stroke-miterlimit="10" points="1123.97,762.52 1098.85,761.13 1097.79,797.1 
		1122.05,798.52 	"/>
	<polygon fill="#22B573" stroke="#000000" stroke-miterlimit="10" points="1146.32,762.52 1123.97,762.52 1122.05,798.52 
		1125.22,798.71 1146.91,798.71 	"/>
	<polygon fill="#22B573" stroke="#000000" stroke-miterlimit="10" points="1307.73,616.74 1297.84,592.8 1257.09,610.21 
		1265.59,631.97 	"/>
	<polygon fill="#22B573" stroke="#000000" stroke-miterlimit="10" points="1286.76,567.09 1247.99,587.07 1257.09,610.21 
		1297.84,592.8 	"/>
	<polygon fill="#22B573" stroke="#000000" stroke-miterlimit="10" points="1274.1,543.35 1235.01,566.1 1247.99,587.07 
		1286.76,567.09 	"/>
	<polygon fill="#22B573" stroke="#000000" stroke-miterlimit="10" points="1259.03,521.2 1223.07,545.73 1235.01,566.1 
		1274.1,543.35 	"/>
	<polygon fill="#22B573" stroke="#000000" stroke-miterlimit="10" points="1202.3,556.8 1217.73,598.54 1247.99,587.07 
		1223.07,545.73 	"/>
	<polygon fill="#22B573" stroke="#000000" stroke-miterlimit="10" points="1177.77,570.25 1188.65,610.21 1217.73,598.54 
		1202.3,556.8 	"/>
	<polygon fill="#22B573" stroke="#000000" stroke-miterlimit="10" points="1160.76,575.2 1160.76,620.69 1188.65,610.21 
		1177.77,570.25 	"/>
	<polygon fill="#22B573" stroke="#000000" stroke-miterlimit="10" points="1238.8,641.46 1265.59,631.97 1247.99,587.07 
		1225.81,595.47 	"/>
	<polygon fill="#22B573" stroke="#000000" stroke-miterlimit="10" points="1213.57,649.37 1238.8,641.46 1225.81,595.47 
		1199.62,605.8 	"/>
	<polygon fill="#22B573" stroke="#000000" stroke-miterlimit="10" points="1187.46,658.67 1213.57,649.37 1199.62,605.8 
		1174.7,615.45 	"/>
	<polygon fill="#22B573" stroke="#000000" stroke-miterlimit="10" points="1160.76,666.78 1187.46,658.67 1174.7,615.45 
		1160.76,620.69 	"/>
	<polygon fill="#22B573" stroke="#000000" stroke-miterlimit="10" points="1252.87,510.58 1235.01,491.33 1203.55,519.81 
		1215.42,536.33 	"/>
	<polygon fill="#22B573" stroke="#000000" stroke-miterlimit="10" points="1217.73,471.55 1187.46,503.2 1203.55,519.81 
		1235.01,491.33 	"/>
	<polygon fill="#22B573" stroke="#000000" stroke-miterlimit="10" points="1202.3,454.34 1171.24,488.69 1187.46,503.2 
		1217.73,471.55 	"/>
	<polygon fill="#22B573" stroke="#000000" stroke-miterlimit="10" points="1182.19,438.05 1202.3,454.34 1171.24,488.69 
		1154.76,472.6 	"/>
	<polygon fill="#22B573" stroke="#000000" stroke-miterlimit="10" points="1162.67,421.97 1182.19,438.05 1154.76,472.6 
		1141.31,461.26 	"/>
	<polygon fill="#22B573" stroke="#000000" stroke-miterlimit="10" points="1187.46,551.2 1215.42,536.33 1203.55,519.81 
		1171.24,488.69 1158.98,509.13 	"/>
	<polygon fill="#22B573" stroke="#000000" stroke-miterlimit="10" points="1149.75,567.09 1187.46,551.2 1174.11,531.48 
		1141.31,542.23 	"/>
	<polygon fill="#22B573" stroke="#000000" stroke-miterlimit="10" points="1141.31,461.26 1131.29,482.1 1129.44,508.74 
		1158.98,509.13 1171.24,488.69 	"/>
	<polygon fill="#22B573" stroke="#000000" stroke-miterlimit="10" points="1141.31,542.23 1129.44,508.74 1158.98,509.13 
		1174.11,531.48 	"/>
	<polygon fill="#22B573" stroke="#000000" stroke-miterlimit="10" points="1151.77,416.43 1120.47,396.65 1109.66,418.01 
		1141.31,435.75 	"/>
	<polygon fill="#22B573" stroke="#000000" stroke-miterlimit="10" points="1131.81,454.34 1141.31,435.75 1109.66,418.01 
		1099.9,438.05 	"/>
	<path fill="#22B573" stroke="#000000" stroke-miterlimit="10" d="M1087.24,459.68c0.26,0.79,34.81,14.84,34.81,14.84l9.76-20.18
		l-31.91-16.29L1087.24,459.68z"/>
	<polygon fill="#22B573" stroke="#000000" stroke-miterlimit="10" points="1080.91,486.85 1087.24,459.68 1122.05,474.52 
		1116.25,491.33 	"/>
	<polygon fill="#22B573" stroke="#000000" stroke-miterlimit="10" points="1080.91,512.43 1118.89,509.13 1116.25,491.33 
		1080.91,486.85 	"/>
	<polygon fill="#22B573" stroke="#000000" stroke-miterlimit="10" points="1087.24,538.01 1080.91,512.43 1118.89,509.13 
		1123.11,529.57 	"/>
	<polygon fill="#22B573" stroke="#000000" stroke-miterlimit="10" points="1093.31,562.01 1087.24,538.01 1123.11,529.57 
		1129.44,549.28 	"/>
	<polygon fill="#22B573" stroke="#000000" stroke-miterlimit="10" points="1097,578.63 1093.31,562.01 1129.44,549.28 
		1137.62,568.87 1108.34,579.68 	"/>
	<polygon fill="#22B573" stroke="#000000" stroke-miterlimit="10" points="1055.86,577.84 1097,578.63 1090.83,552.21 
		1051.37,559.37 	"/>
	<polygon fill="#22B573" stroke="#000000" stroke-miterlimit="10" points="1047.68,540 1051.37,559.37 1090.83,552.21 
		1084.34,529.57 	"/>
	<polygon fill="#22B573" stroke="#000000" stroke-miterlimit="10" points="1043.2,517.18 1047.68,540 1084.34,529.57 
		1080.91,512.43 1080.91,508.74 	"/>
	<polygon fill="#22B573" stroke="#000000" stroke-miterlimit="10" points="1039.24,490.01 1043.2,517.18 1080.91,508.74 
		1080.91,493.18 	"/>
	<polygon fill="#22B573" stroke="#000000" stroke-miterlimit="10" points="1043.2,466.8 1039.24,490.01 1080.91,493.18 
		1080.91,483.81 1084.23,472.6 	"/>
	<polygon fill="#22B573" stroke="#000000" stroke-miterlimit="10" points="1052.96,442.8 1043.2,466.8 1084.23,472.6 1087.24,457.7 
			"/>
	<polygon fill="#22B573" stroke="#000000" stroke-miterlimit="10" points="1067.2,418.01 1052.96,442.8 1087.24,457.7 
		1099.9,438.05 	"/>
	<polygon fill="#22B573" stroke="#000000" stroke-miterlimit="10" points="1077.48,399.55 1067.2,418.01 1099.9,438.05 
		1109.66,418.01 	"/>
	<polygon fill="#22B573" stroke="#000000" stroke-miterlimit="10" points="1087.24,381.88 1077.48,399.55 1109.66,418.01 
		1120.47,396.65 	"/>
	<path fill="#22B573" stroke="#000000" stroke-miterlimit="10" d="M1146.91,668.03v-37.05l-22.95-1.45c0,0-2.7,35.87-1.91,36.13
		C1122.85,665.92,1146.91,668.03,1146.91,668.03z"/>
	<polygon fill="#22B573" stroke="#000000" stroke-miterlimit="10" points="1100.96,628.21 1097.79,663.42 1122.05,665.66 
		1123.97,629.53 	"/>
	<polygon fill="#22B573" stroke="#000000" stroke-miterlimit="10" points="1074.19,660.65 1097.79,663.42 1100.96,628.21 
		1076.16,627.15 	"/>
	<polygon fill="#22B573" stroke="#000000" stroke-miterlimit="10" points="1146.91,593.92 1120.47,592.8 1119.12,629.25 
		1146.91,630.98 	"/>
	<polygon fill="#22B573" stroke="#000000" stroke-miterlimit="10" points="1051.37,625.84 1049.2,658.67 1074.19,660.65 
		1076.16,627.15 	"/>
	<polygon fill="#22B573" stroke="#000000" stroke-miterlimit="10" points="1026.85,623.99 1023.88,656.43 1049.2,658.67 
		1051.37,625.84 	"/>
	<polygon fill="#22B573" stroke="#000000" stroke-miterlimit="10" points="1003.51,622.47 1001,653.79 1023.88,656.43 
		1026.85,623.99 	"/>
	<polygon fill="#22B573" stroke="#000000" stroke-miterlimit="10" points="969.88,620.69 966.45,651.85 1001,653.79 1003.51,622.47 
			"/>
	<polygon fill="#22B573" stroke="#000000" stroke-miterlimit="10" points="1090.83,589.44 1089.61,627.73 1119.12,629.25 
		1120.47,592.8 	"/>
	<polygon fill="#22B573" stroke="#000000" stroke-miterlimit="10" points="1063.77,589.44 1061.36,625.84 1089.61,627.73 
		1090.83,589.44 	"/>
	<polygon fill="#22B573" stroke="#000000" stroke-miterlimit="10" points="1036.54,587.07 1033.18,624.47 1061.36,625.84 
		1063.77,589.44 	"/>
	<polygon fill="#22B573" stroke="#000000" stroke-miterlimit="10" points="1036.54,578.63 1036.54,587.07 1033.18,624.47 
		1003.51,622.47 1007.59,575.2 	"/>
	<polygon fill="#22B573" stroke="#000000" stroke-miterlimit="10" points="967.77,595.47 969.88,620.69 1003.51,622.47 
		1005.46,599.83 	"/>
	<polygon fill="#22B573" stroke="#000000" stroke-miterlimit="10" points="966.45,570.25 967.77,595.47 1005.46,599.83 
		1007.59,575.2 	"/>
	<polygon fill="#22B573" stroke="#000000" stroke-miterlimit="10" points="1146.91,715.77 1146.91,680.43 1123.97,679.37 
		1122.05,714.42 	"/>
	<polygon fill="#22B573" stroke="#000000" stroke-miterlimit="10" points="1098.85,678.05 1098.85,713.13 1122.05,714.42 
		1123.97,679.37 	"/>
	<polygon fill="#22B573" stroke="#000000" stroke-miterlimit="10" points="1074.19,676.12 1073.31,711.55 1076.16,712.6 
		1098.85,713.13 1098.85,678.05 	"/>
	<polygon fill="#22B573" stroke="#000000" stroke-miterlimit="10" points="1048.01,710.76 1073.31,711.55 1074.19,676.12 
		1051.37,676.12 	"/>
	<polygon fill="#22B573" stroke="#000000" stroke-miterlimit="10" points="1025.26,673.84 1023.88,710.76 1048.01,710.76 
		1051.37,676.12 	"/>
	<polygon fill="#22B573" stroke="#000000" stroke-miterlimit="10" points="1001,672.25 999.95,708.91 1023.88,710.76 
		1025.26,673.84 	"/>
	<polygon fill="#22B573" stroke="#000000" stroke-miterlimit="10" points="963.55,670.67 987.09,717.68 995.99,709.44 
		999.95,708.91 1001,672.25 	"/>
	<polygon fill="#22B573" stroke="#000000" stroke-miterlimit="10" points="945.09,694.63 976.74,727.11 987.09,717.68 
		963.55,670.67 	"/>
	<polygon fill="#22B573" stroke="#000000" stroke-miterlimit="10" points="956.69,745.57 976.74,727.11 945.09,694.63 929,714.42 	
		"/>
	<polygon fill="#22B573" stroke="#000000" stroke-miterlimit="10" points="937.18,764.03 956.69,745.57 929,714.42 911.33,732.38 	
		"/>
	<polygon fill="#22B573" stroke="#000000" stroke-miterlimit="10" points="918.19,780.62 937.18,764.03 911.33,732.38 
		890.76,750.05 	"/>
	<polygon fill="#22B573" stroke="#000000" stroke-miterlimit="10" points="869.92,766.14 899.46,797.33 918.19,780.62 
		890.76,750.05 	"/>
	<polygon fill="#22B573" stroke="#000000" stroke-miterlimit="10" points="849.35,782.49 879.68,815.87 899.46,797.33 
		869.92,766.14 	"/>
	<polygon fill="#22B573" stroke="#000000" stroke-miterlimit="10" points="830.36,800.44 860.43,833.53 879.68,815.87 
		849.35,782.49 	"/>
	<polygon fill="#22B573" stroke="#000000" stroke-miterlimit="10" points="822.98,845.99 822.98,822.91 825.35,811.42 
		830.36,800.44 860.43,833.53 841.7,845.99 	"/>
	<polygon fill="#22B573" stroke="#000000" stroke-miterlimit="10" points="822.98,885.35 835.64,885.35 853.57,880.21 841.7,845.99 
		822.98,845.99 	"/>
	<polygon fill="#22B573" stroke="#000000" stroke-miterlimit="10" points="881.53,863.46 868.74,873.75 853.57,880.21 841.7,845.99 
		858.35,834.91 	"/>
	<polygon fill="#22B573" stroke="#000000" stroke-miterlimit="10" points="899.46,845.99 881.53,863.46 858.35,834.91 
		875.93,819.31 	"/>
	<polygon fill="#22B573" stroke="#000000" stroke-miterlimit="10" points="918.19,829.57 899.46,845.99 875.93,819.31 
		895.28,801.25 	"/>
	<polygon fill="#22B573" stroke="#000000" stroke-miterlimit="10" points="937.18,812.76 918.19,829.57 895.28,801.25 
		914.44,783.96 	"/>
	<polygon fill="#22B573" stroke="#000000" stroke-miterlimit="10" points="956.69,794.08 937.18,812.76 914.44,783.96 
		933.49,767.25 	"/>
	<polygon fill="#22B573" stroke="#000000" stroke-miterlimit="10" points="975.68,777.57 956.69,794.08 933.49,767.25 
		949.66,752.23 	"/>
	<polygon fill="#22B573" stroke="#000000" stroke-miterlimit="10" points="992.82,764.03 975.68,777.57 949.66,752.23 
		971.24,732.38 	"/>
	<polygon fill="#22B573" stroke="#000000" stroke-miterlimit="10" points="1011.29,754.98 992.82,764.03 971.24,732.38 
		995.99,709.44 	"/>
	<polygon fill="#22B573" stroke="#000000" stroke-miterlimit="10" points="1030.8,750.05 1011.29,754.98 995.99,709.44 
		1023.88,710.76 	"/>
	<polygon fill="#22B573" stroke="#000000" stroke-miterlimit="10" points="1049.2,748.47 1030.8,750.05 1023.88,710.76 
		1051.37,710.76 	"/>
	<polygon fill="#22B573" stroke="#000000" stroke-miterlimit="10" points="1074.19,748.47 1076.16,712.6 1073.31,711.55 
		1051.37,710.76 1049.2,748.47 	"/>
	<polygon fill="#22B573" stroke="#000000" stroke-miterlimit="10" points="1098.85,748.47 1074.19,748.47 1076.16,712.6 
		1100.96,713.13 	"/>
	<polygon fill="#22B573" stroke="#000000" stroke-miterlimit="10" points="1123.97,750.05 1098.85,748.47 1100.96,713.13 
		1125.22,714.42 	"/>
	<polygon fill="#22B573" stroke="#000000" stroke-miterlimit="10" points="1146.91,750.05 1123.97,750.05 1125.22,714.42 
		1146.91,715.77 	"/>
	<polygon fill="#22B573" stroke="#000000" stroke-miterlimit="10" points="1137.09,389 1152.65,362.63 1129.44,349.7 
		1114.67,379.77 	"/>
	<polygon fill="#22B573" stroke="#000000" stroke-miterlimit="10" points="1171.24,332.56 1152.65,362.63 1129.44,349.7 
		1142.96,320.82 	"/>
	<polygon fill="#22B573" stroke="#000000" stroke-miterlimit="10" points="1183.77,307.77 1154.76,295.11 1142.96,320.82 
		1171.24,332.56 	"/>
	<polygon fill="#22B573" stroke="#000000" stroke-miterlimit="10" points="1197.15,285.35 1161.75,273.22 1154.76,295.11 
		1183.77,307.77 	"/>
	<polygon fill="#22B573" stroke="#000000" stroke-miterlimit="10" points="1203.55,254.76 1161.75,254.76 1161.75,273.22 
		1197.15,285.35 	"/>
	<polygon fill="#22B573" stroke="#000000" stroke-miterlimit="10" points="1197.15,227.86 1156.08,234.19 1161.75,254.76 
		1203.55,254.76 1200.38,233.92 	"/>
	<polygon fill="#22B573" stroke="#000000" stroke-miterlimit="10" points="1187.2,203.07 1151.59,207.29 1156.08,234.19 
		1197.15,227.86 	"/>
	<polygon fill="#22B573" stroke="#000000" stroke-miterlimit="10" points="1176.91,177.22 1147.11,178.54 1151.59,207.29 
		1187.2,203.07 	"/>
	<polygon fill="#22B573" stroke="#000000" stroke-miterlimit="10" points="1116.78,180.38 1147.11,178.54 1151.59,207.29 
		1116.78,211.51 	"/>
	<polygon fill="#22B573" stroke="#000000" stroke-miterlimit="10" points="1119.02,239.99 1116.78,211.51 1151.59,207.29 
		1156.08,234.19 	"/>
	<polygon fill="#22B573" stroke="#000000" stroke-miterlimit="10" points="1119.02,263.2 1161.75,263.2 1161.75,254.76 
		1156.08,234.19 1119.02,239.99 	"/>
	<polygon fill="#22B573" stroke="#000000" stroke-miterlimit="10" points="1121.4,285.35 1154.76,295.11 1161.75,273.22 
		1161.75,263.2 1119.02,263.2 	"/>
	<polygon fill="#22B573" stroke="#000000" stroke-miterlimit="10" points="1115.73,309.35 1142.96,320.82 1154.76,295.11 
		1121.4,285.35 	"/>
	<polygon fill="#22B573" stroke="#000000" stroke-miterlimit="10" points="1105.44,337.84 1129.44,349.7 1142.96,320.82 
		1115.73,309.35 	"/>
	<polygon fill="#22B573" stroke="#000000" stroke-miterlimit="10" points="1093.31,369.48 1114.67,379.77 1129.44,349.7 
		1105.44,337.84 	"/>
	<path fill="#22B573" stroke="#000000" stroke-miterlimit="10" d="M1041.35,567.09l-6.33-22.62l-36.92,6.73
		c0,0,0.79,10.29,1.85,10.81S1041.35,567.09,1041.35,567.09z"/>
	<polygon fill="#22B573" stroke="#000000" stroke-miterlimit="10" points="1031.07,519.81 993.09,526.67 998.1,551.2 
		1035.02,544.47 	"/>
	<polygon fill="#22B573" stroke="#000000" stroke-miterlimit="10" points="1028.16,499.64 988.34,501.09 993.09,526.67 
		1031.07,519.81 	"/>
	<polygon fill="#22B573" stroke="#000000" stroke-miterlimit="10" points="1028.43,478.77 988.34,471.55 988.34,501.09 
		1028.16,499.64 	"/>
	<polygon fill="#22B573" stroke="#000000" stroke-miterlimit="10" points="1035.02,459.68 997.04,445.84 988.34,471.55 
		1028.43,478.77 	"/>
	<polygon fill="#22B573" stroke="#000000" stroke-miterlimit="10" points="1041.35,439.37 1011.68,421.97 997.04,445.84 
		1035.02,459.68 	"/>
	<polygon fill="#22B573" stroke="#000000" stroke-miterlimit="10" points="1052.96,416.2 1023.88,399.95 1011.68,421.97 
		1041.35,439.37 	"/>
	<polygon fill="#22B573" stroke="#000000" stroke-miterlimit="10" points="1035.02,381.88 1023.88,399.95 1052.96,416.2 
		1065.22,394.8 	"/>
	<polygon fill="#22B573" stroke="#000000" stroke-miterlimit="10" points="1043.2,366.05 1035.02,381.88 1065.22,394.8 
		1074.19,377.53 	"/>
	<polygon fill="#22B573" stroke="#000000" stroke-miterlimit="10" points="1014.05,354.71 999.15,373.7 1029.06,391.54 
		1043.2,366.05 	"/>
	<polygon fill="#22B573" stroke="#000000" stroke-miterlimit="10" points="985.44,394.8 1017.42,411.6 1029.06,391.54 999.15,373.7 
			"/>
	<polygon fill="#22B573" stroke="#000000" stroke-miterlimit="10" points="971.73,414.78 1005.46,432.11 1017.42,411.6 
		985.44,394.8 	"/>
	<polygon fill="#22B573" stroke="#000000" stroke-miterlimit="10" points="960,433.84 994.57,451.51 1005.46,432.11 971.73,414.78 	
		"/>
	<polygon fill="#22B573" stroke="#000000" stroke-miterlimit="10" points="948.52,456.29 988.34,468.91 994.57,451.51 960,433.84 
		954.32,440.82 948.52,455.2 	"/>
	<polygon fill="#22B573" stroke="#000000" stroke-miterlimit="10" points="943.77,481.31 988.34,483.81 988.34,468.91 
		948.52,456.29 	"/>
	<polygon fill="#22B573" stroke="#000000" stroke-miterlimit="10" points="947.46,506.89 988.34,501.09 988.34,483.81 
		943.77,481.31 943.77,496.87 	"/>
	<polygon fill="#22B573" stroke="#000000" stroke-miterlimit="10" points="953.26,533.79 993.09,526.67 988.34,501.09 
		947.46,506.89 	"/>
	<polygon fill="#22B573" stroke="#000000" stroke-miterlimit="10" points="958.8,559.37 999.95,562.01 993.09,526.67 953.26,533.79 
			"/>
	<polygon fill="#22B573" stroke="#000000" stroke-miterlimit="10" points="1081.18,365 1089.88,343.64 1059.55,330.32 
		1051.64,354.71 	"/>
	<path fill="#22B573" stroke="#000000" stroke-miterlimit="10" d="M1098.05,318.32l-32.84-10.55c0,0-7.65,21.68-5.67,22.55
		c1.98,0.87,30.33,13.32,30.33,13.32L1098.05,318.32z"/>
	<polygon fill="#22B573" stroke="#000000" stroke-miterlimit="10" points="1106.76,290.49 1068.52,285.35 1065.22,307.77 
		1098.05,318.32 	"/>
	<polygon fill="#22B573" stroke="#000000" stroke-miterlimit="10" points="1106.76,263.2 1070.76,261.35 1068.52,285.35 
		1106.76,290.49 	"/>
	<polygon fill="#22B573" stroke="#000000" stroke-miterlimit="10" points="1106.76,235.51 1072.21,236.56 1070.76,261.35 
		1106.76,263.2 	"/>
	<polygon fill="#22B573" stroke="#000000" stroke-miterlimit="10" points="1105.44,209.13 1070.76,211.51 1072.21,236.56 
		1106.76,235.51 	"/>
	<polygon fill="#22B573" stroke="#000000" stroke-miterlimit="10" points="1104.12,181.97 1068.52,184.6 1070.76,211.51 
		1105.44,209.13 	"/>
	<path fill="#22B573" stroke="#000000" stroke-miterlimit="10" d="M1032.32,186.45c0,0,0.07,24.26,1.38,25.05
		c1.32,0.79,37.06,0,37.06,0l-2.24-26.9L1032.32,186.45z"/>
	<path fill="#22B573" stroke="#000000" stroke-miterlimit="10" d="M1035.02,236.56c1.05,0.53,37.19,0,37.19,0l-1.45-25.05h-37.06
		L1035.02,236.56z"/>
	<polygon fill="#22B573" stroke="#000000" stroke-miterlimit="10" points="1035.02,257.66 1070.76,261.35 1072.21,236.56 
		1035.02,236.56 	"/>
	<polygon fill="#22B573" stroke="#000000" stroke-miterlimit="10" points="1032.32,278.89 1068.52,285.35 1070.76,261.35 
		1035.02,257.66 	"/>
	<polygon fill="#22B573" stroke="#000000" stroke-miterlimit="10" points="1029.62,300.12 1065.22,307.77 1068.52,285.35 
		1032.32,278.89 	"/>
	<polygon fill="#22B573" stroke="#000000" stroke-miterlimit="10" points="1023.88,322.27 1059.55,330.32 1065.22,307.77 
		1029.62,300.12 	"/>
	<polygon fill="#22B573" stroke="#000000" stroke-miterlimit="10" points="1018.93,343.64 1051.64,354.71 1059.55,330.32 
		1023.88,322.27 	"/>
	<path fill="#22B573" stroke="#000000" stroke-miterlimit="10" d="M1653.48,930.98"/>
	<polygon fill="#22B573" stroke="#000000" stroke-miterlimit="10" points="809.66,946.27 809.66,898.01 785.13,898.01 
		785.13,934.01 	"/>
	<polygon fill="#22B573" stroke="#000000" stroke-miterlimit="10" points="753.48,896.61 753.48,929.26 772.47,929.26 
		785.13,934.01 785.13,898.01 	"/>
	<polygon fill="#22B573" stroke="#000000" stroke-miterlimit="10" points="725.79,896.61 753.48,896.61 753.48,929.26 
		743.59,929.26 725.79,940.74 	"/>
	<polygon fill="#22B573" stroke="#000000" stroke-miterlimit="10" points="698.89,896.61 725.79,896.61 725.79,940.74 
		719.07,946.27 698.89,946.27 	"/>
	<polygon fill="#22B573" stroke="#000000" stroke-miterlimit="10" points="673.18,896.61 698.89,896.61 698.89,946.27 
		673.18,943.11 	"/>
	<polygon fill="#22B573" stroke="#000000" stroke-miterlimit="10" points="659.33,896.61 673.18,896.61 673.18,943.11 
		642.32,938.76 637.57,925.31 	"/>
	<polygon fill="#22B573" stroke="#000000" stroke-miterlimit="10" points="639.55,877.7 659.33,896.61 637.57,925.31 615.02,903.55 
			"/>
	<polygon fill="#22B573" stroke="#000000" stroke-miterlimit="10" points="617.77,855.59 639.55,877.7 615.02,903.55 603.55,891.95 
			"/>
	<polygon fill="#22B573" stroke="#000000" stroke-miterlimit="10" points="585.35,855.59 617.77,855.59 603.55,891.95 
		585.35,891.95 	"/>
	<rect x="552.91" y="855.59" fill="#22B573" stroke="#000000" stroke-miterlimit="10" width="26.11" height="37.87"/>
	<polygon fill="#22B573" stroke="#000000" stroke-miterlimit="10" points="520.08,855.59 552.91,855.59 552.91,893.46 
		533.13,889.11 	"/>
	<polygon fill="#22B573" stroke="#000000" stroke-miterlimit="10" points="489.6,869.53 520.08,855.59 533.13,889.11 505.44,896.61 
			"/>
	<polygon fill="#22B573" stroke="#000000" stroke-miterlimit="10" points="464.69,869.13 489.6,869.53 505.44,896.61 464.69,897.22 
			"/>
	<rect x="435.62" y="869.13" fill="#22B573" stroke="#000000" stroke-miterlimit="10" width="29.08" height="28.09"/>
	<polygon fill="#22B573" stroke="#000000" stroke-miterlimit="10" points="437,856.67 439.57,838.67 472.41,822.45 487.84,856.67 	
		"/>
	<polygon fill="#22B573" stroke="#000000" stroke-miterlimit="10" points="496.54,809.99 472.41,822.45 487.84,856.67 
		511.37,846.58 	"/>
	<polygon fill="#22B573" stroke="#000000" stroke-miterlimit="10" points="521.46,800.1 496.54,809.99 511.37,846.58 536.49,836.1 	
		"/>
	<polygon fill="#22B573" stroke="#000000" stroke-miterlimit="10" points="545.79,789.81 521.46,800.1 536.49,836.1 561.02,825.81 	
		"/>
	<polygon fill="#22B573" stroke="#000000" stroke-miterlimit="10" points="568.74,780.62 545.79,789.81 561.02,825.81 
		585.35,815.87 	"/>
	<polygon fill="#22B573" stroke="#000000" stroke-miterlimit="10" points="608.3,805.57 585.35,815.87 568.74,780.62 592.74,769.44 
			"/>
	<polygon fill="#22B573" stroke="#000000" stroke-miterlimit="10" points="634.54,794.1 608.3,805.57 592.74,769.44 616.08,758.23 	
		"/>
	<polygon fill="#22B573" stroke="#000000" stroke-miterlimit="10" points="658.48,780.62 634.54,794.1 616.08,758.23 630.05,751.24 
		637.57,745.84 	"/>
	<polygon fill="#22B573" stroke="#000000" stroke-miterlimit="10" points="657.75,731.07 637.57,745.84 658.48,780.62 
		680.69,765.48 	"/>
	<polygon fill="#22B573" stroke="#000000" stroke-miterlimit="10" points="682.54,714.19 657.75,731.07 680.69,765.48 
		705.35,747.29 	"/>
	<polygon fill="#22B573" stroke="#000000" stroke-miterlimit="10" points="704.03,699.42 682.54,714.19 705.35,747.29 
		726.45,732.25 	"/>
	<polygon fill="#22B573" stroke="#000000" stroke-miterlimit="10" points="725.79,683.59 704.03,699.42 726.45,732.25 
		748.08,718.01 	"/>
	<polygon fill="#22B573" stroke="#000000" stroke-miterlimit="10" points="746.76,668.16 725.79,683.59 748.08,718.01 
		770.49,702.19 	"/>
	<polygon fill="#22B573" stroke="#000000" stroke-miterlimit="10" points="702.45,608.03 726.05,639.88 707,654.12 684.05,619.31 	
		"/>
	<polygon fill="#22B573" stroke="#000000" stroke-miterlimit="10" points="659.13,635.33 684.05,619.31 707,654.12 684.05,670.74 	
		"/>
	<polygon fill="#22B573" stroke="#000000" stroke-miterlimit="10" points="639.35,648.58 663.29,685.37 684.05,670.74 
		659.13,635.33 	"/>
	<polygon fill="#22B573" stroke="#000000" stroke-miterlimit="10" points="616.08,663.62 634.54,700.8 652.01,693.09 663.29,685.37 
		639.35,648.58 	"/>
	<polygon fill="#22B573" stroke="#000000" stroke-miterlimit="10" points="591.29,674.69 609.29,714.19 634.54,700.8 616.08,663.62 
			"/>
	<polygon fill="#22B573" stroke="#000000" stroke-miterlimit="10" points="564.58,684.58 591.29,674.69 609.29,714.19 
		599.79,720.19 580.6,724.74 	"/>
	<polygon fill="#22B573" stroke="#000000" stroke-miterlimit="10" points="539.07,693.09 550.93,731.07 555.88,728.69 580.6,724.74 
		564.58,684.58 	"/>
	<polygon fill="#22B573" stroke="#000000" stroke-miterlimit="10" points="512.36,701.99 525.42,745.84 550.93,731.07 
		539.07,693.09 	"/>
	<polygon fill="#22B573" stroke="#000000" stroke-miterlimit="10" points="487.64,709.51 502.08,759.95 513.15,759.95 
		525.42,745.84 512.36,701.99 	"/>
	<polygon fill="#22B573" stroke="#000000" stroke-miterlimit="10" points="461.33,717.22 473.4,755.84 502.08,759.95 487.64,709.51 
			"/>
	<polygon fill="#22B573" stroke="#000000" stroke-miterlimit="10" points="428.3,727.7 447.29,751.44 473.4,755.84 461.33,717.22 	
		"/>
	<polygon fill="#22B573" stroke="#000000" stroke-miterlimit="10" points="524.63,686.36 473.4,699.71 470.63,671.92 518.89,666.19 
			"/>
	<polygon fill="#22B573" stroke="#000000" stroke-miterlimit="10" points="517.31,639.88 470.63,637.31 470.63,671.92 
		518.89,666.19 	"/>
	<polygon fill="#22B573" stroke="#000000" stroke-miterlimit="10" points="478.14,600.71 470.63,637.31 517.31,639.88 
		520.47,619.31 	"/>
	<polygon fill="#22B573" stroke="#000000" stroke-miterlimit="10" points="499.9,564.71 478.14,600.71 520.47,619.31 533.73,594.78 
			"/>
	<polygon fill="#22B573" stroke="#000000" stroke-miterlimit="10" points="518.89,532.67 499.9,564.71 533.73,594.78 550.34,581.53 
			"/>
	<polygon fill="#22B573" stroke="#000000" stroke-miterlimit="10" points="544.6,527.53 533.73,535.44 518.89,532.67 550.34,581.53 
		571.7,567.09 	"/>
	<polygon fill="#22B573" stroke="#000000" stroke-miterlimit="10" points="566.56,515.86 556.08,527.53 544.6,527.53 571.7,567.09 
		592.08,553.24 	"/>
	<polygon fill="#22B573" stroke="#000000" stroke-miterlimit="10" points="586.14,496.47 566.56,515.86 592.08,553.24 612.91,538.6 
			"/>
	<polygon fill="#22B573" stroke="#000000" stroke-miterlimit="10" points="597.02,465.42 586.14,496.47 612.91,538.6 634.8,523.37 	
		"/>
	<polygon fill="#22B573" stroke="#000000" stroke-miterlimit="10" points="566.56,452.56 532.54,454.14 534.91,497.46 
		560.43,473.13 566.56,457.11 	"/>
	<polygon fill="#22B573" stroke="#000000" stroke-miterlimit="10" points="564.78,430.8 531.55,432.19 532.54,454.14 566.56,452.56 
			"/>
	<polygon fill="#22B573" stroke="#000000" stroke-miterlimit="10" points="511.77,432.38 531.55,432.19 533.37,469.36 
		512.76,470.16 	"/>
	<polygon fill="#22B573" stroke="#000000" stroke-miterlimit="10" points="490.8,433.57 511.77,432.38 512.76,470.16 493.57,471.15 
			"/>
	<polygon fill="#22B573" stroke="#000000" stroke-miterlimit="10" points="493.77,478.27 494.76,497.46 524.23,502.01 
		534.91,497.46 533.37,476.69 	"/>
	<polygon fill="#22B573" stroke="#000000" stroke-miterlimit="10" points="564.19,418.74 563.2,396.38 526.6,398.96 527.79,420.12 	
		"/>
	<polygon fill="#22B573" stroke="#000000" stroke-miterlimit="10" points="562.01,374.03 525.02,376.6 526.6,398.96 563.2,396.38 	
		"/>
	<polygon fill="#22B573" stroke="#000000" stroke-miterlimit="10" points="560.43,353.46 523.84,355.64 525.02,376.6 562.01,374.03 
			"/>
	<polygon fill="#22B573" stroke="#000000" stroke-miterlimit="10" points="559.04,329.53 522.57,332.1 523.84,355.64 560.43,353.46 
			"/>
	<polygon fill="#22B573" stroke="#000000" stroke-miterlimit="10" points="558.05,308.76 521.07,310.74 522.57,332.1 559.04,329.53 
			"/>
	<path fill="#22B573" stroke="#000000" stroke-miterlimit="10" d="M555.88,284.82c-0.59,0-36.4,2.97-36.4,2.97l1.58,22.95
		l36.99-1.98L555.88,284.82z"/>
	<polygon fill="#22B573" stroke="#000000" stroke-miterlimit="10" points="554.69,262.08 517.9,264.25 519.48,287.79 555.88,284.82 
			"/>
	<polygon fill="#22B573" stroke="#000000" stroke-miterlimit="10" points="553.31,240.71 516.91,242.49 517.9,264.25 554.69,262.08 
			"/>
	<path fill="#22B573" stroke="#000000" stroke-miterlimit="10" d="M479.53,244.08c0,0,0.99,22.15,1.58,22.15s36.79-1.98,36.79-1.98
		l-0.99-21.76L479.53,244.08z"/>
	<polygon fill="#22B573" stroke="#000000" stroke-miterlimit="10" points="482.69,289.57 481.11,266.23 517.9,264.25 519.48,287.79 
			"/>
	<polygon fill="#22B573" stroke="#000000" stroke-miterlimit="10" points="484.47,312.12 482.69,289.57 519.48,287.79 
		521.07,310.74 	"/>
	<polygon fill="#22B573" stroke="#000000" stroke-miterlimit="10" points="485.36,333.38 522.57,332.1 521.07,310.74 484.47,312.12 
			"/>
	<polygon fill="#22B573" stroke="#000000" stroke-miterlimit="10" points="487.14,357.81 523.84,355.64 522.57,332.1 485.36,333.38 
			"/>
	<polygon fill="#22B573" stroke="#000000" stroke-miterlimit="10" points="488.73,378.19 525.02,376.6 523.84,355.64 487.14,357.81 
			"/>
	<polygon fill="#22B573" stroke="#000000" stroke-miterlimit="10" points="489.81,401.43 526.6,398.96 525.02,376.6 488.73,378.19 	
		"/>
	<polygon fill="#22B573" stroke="#000000" stroke-miterlimit="10" points="490.8,422.4 527.79,420.12 526.6,398.96 489.81,401.43 	
		"/>
	<polygon fill="#22B573" stroke="#000000" stroke-miterlimit="10" points="498.71,190.27 501.19,231.52 479.03,232.51 
		476.69,191.07 	"/>
	<path fill="#22B573" stroke="#000000" stroke-miterlimit="10" d="M521.07,189.62l-22.35,0.66c0,0,0.59,41.47,2.47,41.24
		c1.88-0.23,22.65-1.29,22.65-1.29L521.07,189.62z"/>
	<polygon fill="#22B573" stroke="#000000" stroke-miterlimit="10" points="544.14,188.3 521.07,189.62 523.84,230.23 546.58,228.91 
			"/>
	<polygon fill="#22B573" stroke="#000000" stroke-miterlimit="10" points="566.36,187.77 544.14,188.3 546.58,228.91 568.47,227.59 
			"/>
	<polygon fill="#22B573" stroke="#000000" stroke-miterlimit="10" points="588.38,185.66 566.36,187.77 568.47,227.59 
		590.89,226.93 	"/>
	<polygon fill="#22B573" stroke="#000000" stroke-miterlimit="10" points="611.46,184.34 588.38,185.66 590.89,226.93 
		613.18,225.75 	"/>
	<polygon fill="#22B573" stroke="#000000" stroke-miterlimit="10" points="634.14,183.15 611.46,184.34 613.18,225.75 
		636.91,224.82 	"/>
	<polygon fill="#22B573" stroke="#000000" stroke-miterlimit="10" points="656.69,182.1 634.14,183.15 636.91,224.82 658.54,223.64 
			"/>
	<polygon fill="#22B573" stroke="#000000" stroke-miterlimit="10" points="679.64,180.91 656.69,182.1 658.54,223.64 681.22,222.45 
			"/>
	<polygon fill="#22B573" stroke="#000000" stroke-miterlimit="10" points="700.6,179.59 679.64,180.91 681.22,222.45 704.3,221.26 	
		"/>
	<polygon fill="#22B573" stroke="#000000" stroke-miterlimit="10" points="724.21,180.91 716.82,178.14 700.6,179.59 704.3,221.26 
		725.26,220.08 	"/>
	<polygon fill="#22B573" stroke="#000000" stroke-miterlimit="10" points="746.49,184.87 724.21,180.91 725.26,220.08 
		747.95,218.76 	"/>
	<polygon fill="#22B573" stroke="#000000" stroke-miterlimit="10" points="784.84,192.95 746.49,184.87 747.95,218.76 
		786.91,216.98 	"/>
	<polygon fill="#22B573" stroke="#000000" stroke-miterlimit="10" points="833.49,202.64 784.84,192.95 786.91,216.98 
		833.49,215.69 	"/>
	<polygon fill="#22B573" stroke="#000000" stroke-miterlimit="10" points="566.36,240.25 567.15,260.56 603.81,257.26 
		602.63,238.41 	"/>
	<polygon fill="#22B573" stroke="#000000" stroke-miterlimit="10" points="568.47,282.19 605.4,277.84 603.81,257.26 567.15,260.56 
			"/>
	<polygon fill="#22B573" stroke="#000000" stroke-miterlimit="10" points="569.53,300.91 568.47,282.19 605.4,277.84 606.45,297.78 
			"/>
	<polygon fill="#22B573" stroke="#000000" stroke-miterlimit="10" points="570.85,324.12 569.53,300.91 606.45,297.78 
		607.64,303.81 583.64,324.12 	"/>
	<polygon fill="#22B573" stroke="#000000" stroke-miterlimit="10" points="641.13,254.49 604.86,270.86 606.45,297.78 
		607.64,303.81 652.47,272.16 	"/>
	<polygon fill="#22B573" stroke="#000000" stroke-miterlimit="10" points="630.32,237.62 602.63,238.41 604.86,270.86 
		641.13,254.49 	"/>
	<polygon fill="#22B573" stroke="#000000" stroke-miterlimit="10" points="661.31,235.18 630.32,237.62 652.47,272.16 
		674.76,258.91 	"/>
	<path fill="#22B573" stroke="#000000" stroke-miterlimit="10" d="M706.01,233.2l-44.7,1.98c0,0,11.47,24.13,13.45,23.74
		s32.04-16.81,32.04-16.81L706.01,233.2z"/>
	<polygon fill="#22B573" stroke="#000000" stroke-miterlimit="10" points="578.63,430.8 596.03,413.79 611.73,390.05 612.52,383.2 
		574.8,385.57 	"/>
	<polygon fill="#22B573" stroke="#000000" stroke-miterlimit="10" points="578.63,352.34 573.62,369.88 574.8,385.57 612.52,383.2 
		615.68,368.96 	"/>
	<path fill="#22B573" stroke="#000000" stroke-miterlimit="10" d="M600.98,322.06c0,0-17.34,12.74-22.35,30.28l37.05,16.62
		l10.02-15.49L600.98,322.06z"/>
	<polygon fill="#22B573" stroke="#000000" stroke-miterlimit="10" points="625.7,304.6 600.98,322.06 625.7,353.46 648.85,335.46 	
		"/>
	<polygon fill="#22B573" stroke="#000000" stroke-miterlimit="10" points="652.54,285.81 625.7,304.6 648.85,335.46 676.34,324.98 	
		"/>
	<polygon fill="#22B573" stroke="#000000" stroke-miterlimit="10" points="680.3,269.73 652.54,285.81 676.34,324.98 702.65,309.55 
			"/>
	<polygon fill="#22B573" stroke="#000000" stroke-miterlimit="10" points="711.15,258.92 680.3,269.73 702.65,309.55 721.84,294.91 
			"/>
	<polygon fill="#22B573" stroke="#000000" stroke-miterlimit="10" points="743,252.78 711.15,258.92 721.84,294.91 743,294.91 	"/>
	<polygon fill="#22B573" stroke="#000000" stroke-miterlimit="10" points="774.45,251.59 743,252.78 743,294.91 776.63,294.91 	"/>
	<polygon fill="#22B573" stroke="#000000" stroke-miterlimit="10" points="805.7,249.48 774.45,251.59 776.63,294.91 788.1,294.91 
		808.27,284.23 	"/>
	<polygon fill="#22B573" stroke="#000000" stroke-miterlimit="10" points="833.49,270.78 808.27,284.23 805.7,249.48 804.91,227.26 
		831.81,226.08 	"/>
	<polygon fill="#22B573" stroke="#000000" stroke-miterlimit="10" points="856.93,262.08 865.24,223.64 831.81,226.08 
		833.49,270.78 848.53,262.87 	"/>
	<polygon fill="#22B573" stroke="#000000" stroke-miterlimit="10" points="877.51,265.24 856.93,262.08 865.24,223.64 
		888.58,222.45 900.25,229.24 	"/>
	<polygon fill="#22B573" stroke="#000000" stroke-miterlimit="10" points="884.82,275.92 877.51,265.24 900.25,229.24 
		916.67,245.26 926.96,265.24 	"/>
	<polygon fill="#22B573" stroke="#000000" stroke-miterlimit="10" points="885.02,293.33 884.82,275.92 926.96,265.24 928.14,286.8 
		920.23,310.14 	"/>
	<polygon fill="#22B573" stroke="#000000" stroke-miterlimit="10" points="872.36,300.12 885.02,293.33 920.23,310.14 
		906.48,326.36 887.4,338.49 	"/>
	<polygon fill="#22B573" stroke="#000000" stroke-miterlimit="10" points="846.25,310.14 872.36,300.12 887.4,338.49 858.91,347.53 
			"/>
	<polygon fill="#22B573" stroke="#000000" stroke-miterlimit="10" points="820.74,318.45 846.25,310.14 858.91,347.53 
		831.02,354.71 	"/>
	<polygon fill="#22B573" stroke="#000000" stroke-miterlimit="10" points="789.88,328.14 820.74,318.45 831.02,354.71 
		803.53,363.35 	"/>
	<polygon fill="#22B573" stroke="#000000" stroke-miterlimit="10" points="759.81,336.25 789.88,328.14 803.53,363.35 
		775.84,374.63 	"/>
	<polygon fill="#22B573" stroke="#000000" stroke-miterlimit="10" points="730.54,348.52 750.91,387.09 775.84,374.63 
		759.81,336.25 	"/>
	<polygon fill="#22B573" stroke="#000000" stroke-miterlimit="10" points="701.07,357.22 727.18,400.54 750.91,387.09 
		730.54,348.52 	"/>
	<polygon fill="#22B573" stroke="#000000" stroke-miterlimit="10" points="667.84,368.96 702.65,417.55 727.18,400.54 
		701.07,357.22 671.79,365.13 	"/>
	<polygon fill="#22B573" stroke="#000000" stroke-miterlimit="10" points="647.46,396.38 680.3,433.77 702.65,417.55 667.84,368.96 
		653.79,383.2 	"/>
	<polygon fill="#22B573" stroke="#000000" stroke-miterlimit="10" points="629.46,433.77 651.62,458.89 680.3,433.77 647.46,396.38 
		641.53,422.4 	"/>
	<polygon fill="#22B573" stroke="#000000" stroke-miterlimit="10" points="603.15,458.89 620.96,483.62 651.62,458.89 
		629.46,433.77 	"/>
	<path fill="#22B573" stroke="#000000" stroke-miterlimit="10" d="M1020.12,186.58l-39.56,1.32c0,0,0.79,27.16,0.79,27.56
		c0,0.4,41.14-1.32,41.14-1.32L1020.12,186.58z"/>
	<polygon fill="#22B573" stroke="#000000" stroke-miterlimit="10" points="981.48,239.33 1024.87,239.33 1022.49,214.14 
		981.35,215.46 	"/>
	<polygon fill="#22B573" stroke="#000000" stroke-miterlimit="10" points="940.47,215.52 940.47,189.22 980.56,187.9 981.35,215.46 
			"/>
	<polygon fill="#22B573" stroke="#000000" stroke-miterlimit="10" points="940.47,239.33 940.47,215.52 981.35,215.46 
		981.48,239.33 	"/>
	<polygon fill="#22B573" stroke="#000000" stroke-miterlimit="10" points="982.8,263.86 981.48,239.33 1024.87,239.33 
		1023.15,265.24 	"/>
	<path fill="#22B573" stroke="#000000" stroke-miterlimit="10" d="M982.93,265.84c0,0-42.2-0.26-42.46-0.59s0-25.91,0-25.91h41.01
		L982.93,265.84z"/>
	<polygon fill="#22B573" stroke="#000000" stroke-miterlimit="10" points="980.43,282.98 1018.93,291.15 1023.15,265.24 
		982.8,263.86 	"/>
	<polygon fill="#22B573" stroke="#000000" stroke-miterlimit="10" points="977.26,300.78 940.36,289.84 940.47,265.24 
		982.01,265.82 	"/>
	<polygon fill="#22B573" stroke="#000000" stroke-miterlimit="10" points="977.4,306.71 977.26,300.78 980.43,282.98 
		1018.93,291.15 1013.4,315.91 	"/>
	<polygon fill="#22B573" stroke="#000000" stroke-miterlimit="10" points="967.64,327.81 977.4,306.71 977.26,300.78 940.36,289.84 
		934.14,311.73 	"/>
	<polygon fill="#22B573" stroke="#000000" stroke-miterlimit="10" points="1005.09,342.19 1013.4,315.91 977.4,306.71 
		969.94,322.84 	"/>
	<polygon fill="#22B573" stroke="#000000" stroke-miterlimit="10" points="992.69,360.38 1005.09,342.19 969.94,322.84 
		967.64,327.81 962.63,339.95 	"/>
	<path fill="#22B573" stroke="#000000" stroke-miterlimit="10" d="M948.78,359.2l-28.55-28.22c0,0,13.11-19.64,13.91-19.25
		c0.8,0.38,33.49,16.09,33.49,16.09l-5.01,12.13L948.78,359.2z"/>
	<polygon fill="#22B573" stroke="#000000" stroke-miterlimit="10" points="979.24,380.43 992.69,360.38 962.63,339.95 948.78,359.2 
			"/>
	<polygon fill="#22B573" stroke="#000000" stroke-miterlimit="10" points="966.45,398.49 979.24,380.43 948.78,359.2 935.59,377 	
		"/>
	<polygon fill="#22B573" stroke="#000000" stroke-miterlimit="10" points="918.32,368.3 935.59,377 948.78,359.2 920.23,330.98 
		902.1,345.22 	"/>
	<polygon fill="#22B573" stroke="#000000" stroke-miterlimit="10" points="888.91,394.8 918.32,368.3 902.1,345.22 863.46,359.2 
		866.1,373.7 874.27,386.89 	"/>
	<polygon fill="#22B573" stroke="#000000" stroke-miterlimit="10" points="921.09,411.6 941.78,381.31 918.32,368.3 888.91,394.8 	
		"/>
	<polygon fill="#22B573" stroke="#000000" stroke-miterlimit="10" points="948.78,424.6 966.45,398.49 941.78,381.31 921.09,411.6 	
		"/>
	<polygon fill="#22B573" stroke="#000000" stroke-miterlimit="10" points="915.35,424.08 903.15,451.51 872.69,435.42 
		888.91,410.89 	"/>
	<polygon fill="#22B573" stroke="#000000" stroke-miterlimit="10" points="941.78,436.6 915.35,424.08 903.15,451.51 899.59,463.77 
		931.51,472.6 	"/>
	<polygon fill="#22B573" stroke="#000000" stroke-miterlimit="10" points="895.24,476.03 899.59,463.77 903.15,451.51 
		872.69,435.42 861.35,462.32 	"/>
	<polygon fill="#22B573" stroke="#000000" stroke-miterlimit="10" points="894.32,497.4 895.24,476.03 899.59,463.77 931.51,472.6 
		931.51,496.87 	"/>
	<polygon fill="#22B573" stroke="#000000" stroke-miterlimit="10" points="854.49,491.86 861.35,462.32 895.24,476.03 894.32,497.4 
			"/>
	<polygon fill="#22B573" stroke="#000000" stroke-miterlimit="10" points="896.56,525.75 893.13,505.34 894.32,497.4 931.51,496.87 
		936.65,518.23 	"/>
	<polygon fill="#22B573" stroke="#000000" stroke-miterlimit="10" points="853.31,521 895.24,518.76 893.13,505.34 894.32,497.4 
		854.49,491.86 	"/>
	<path fill="#22B573" stroke="#000000" stroke-miterlimit="10" d="M856.6,548.96l41.93-7.91c0,0-1.85-14.53-1.98-15.3
		s-1.32-6.99-1.32-6.99L853.31,521L856.6,548.96z"/>
	<polygon fill="#22B573" stroke="#000000" stroke-miterlimit="10" points="901.04,552.21 896.56,525.75 936.65,518.23 
		941.78,542.49 	"/>
	<polygon fill="#22B573" stroke="#000000" stroke-miterlimit="10" points="904.08,571.37 901.04,552.21 898.54,541.04 856.6,548.96 
		861.75,576.65 	"/>
	<polygon fill="#22B573" stroke="#000000" stroke-miterlimit="10" points="905.92,577.97 904.08,571.37 901.04,552.21 
		941.78,542.49 948.12,567.09 	"/>
	<path fill="#22B573" stroke="#000000" stroke-miterlimit="10" d="M910.14,600.91c0,0-4.08-22.46-4.22-22.95s-1.85-6.59-1.85-6.59
		l-42.33,5.27l4.48,27.43L910.14,600.91z"/>
	<polygon fill="#22B573" stroke="#000000" stroke-miterlimit="10" points="953.92,591.68 910.14,600.91 905.92,577.97 
		948.12,567.09 	"/>
	<polygon fill="#22B573" stroke="#000000" stroke-miterlimit="10" points="955.11,623.99 953.92,591.68 910.14,600.91 
		911.99,619.64 	"/>
	<polygon fill="#22B573" stroke="#000000" stroke-miterlimit="10" points="950.1,652.08 955.11,623.99 911.99,619.64 906.98,638.1 	
		"/>
	<polygon fill="#22B573" stroke="#000000" stroke-miterlimit="10" points="863.99,624.65 906.98,638.1 911.99,619.64 910.14,600.91 
		866.23,604.08 	"/>
	<polygon fill="#22B573" stroke="#000000" stroke-miterlimit="10" points="859.9,386.2 851,361.67 816.29,372.15 833.89,406.37 	"/>
	<polygon fill="#22B573" stroke="#000000" stroke-miterlimit="10" points="878.49,403.8 859.9,386.2 833.89,406.37 863.46,427.04 	
		"/>
	<polygon fill="#22B573" stroke="#000000" stroke-miterlimit="10" points="847.04,467.89 863.46,427.04 848.94,416.89 
		820.74,454.14 	"/>
	<polygon fill="#22B573" stroke="#000000" stroke-miterlimit="10" points="793.14,439.21 820.74,454.14 848.94,416.89 
		833.89,406.37 	"/>
	<polygon fill="#22B573" stroke="#000000" stroke-miterlimit="10" points="790.47,381.55 812.51,423.6 833.89,406.37 816.29,372.15 
			"/>
	<polygon fill="#22B573" stroke="#000000" stroke-miterlimit="10" points="766.14,391.64 793.14,439.21 812.51,423.6 790.47,381.55 
			"/>
	<polygon fill="#22B573" stroke="#000000" stroke-miterlimit="10" points="755.46,398.49 733.84,410.38 755.46,445.7 774.19,430.8 	
		"/>
	<polygon fill="#22B573" stroke="#000000" stroke-miterlimit="10" points="711.95,425.66 733.84,410.38 755.46,445.7 735.68,460.74 
			"/>
	<polygon fill="#22B573" stroke="#000000" stroke-miterlimit="10" points="691.11,441.22 711.95,425.66 735.68,460.74 
		714.32,476.03 	"/>
	<polygon fill="#22B573" stroke="#000000" stroke-miterlimit="10" points="760.01,477.48 782.96,448.34 774.19,430.8 744.36,454.14 
			"/>
	<polygon fill="#22B573" stroke="#000000" stroke-miterlimit="10" points="761.4,480.58 744.36,453.35 714.32,476.03 731.92,503 	
		"/>
	<polygon fill="#22B573" stroke="#000000" stroke-miterlimit="10" points="772.67,496.47 784.14,498.85 804.52,459.88 
		782.96,448.34 760.01,477.48 	"/>
	<polygon fill="#22B573" stroke="#000000" stroke-miterlimit="10" points="814.21,505.34 823.9,469.97 804.52,459.88 784.14,498.85 
			"/>
	<polygon fill="#22B573" stroke="#000000" stroke-miterlimit="10" points="840.71,511.31 844.08,479.86 823.9,469.97 814.21,505.34 
			"/>
	<polygon fill="#22B573" stroke="#000000" stroke-miterlimit="10" points="843.09,538.6 840.71,511.31 814.21,505.34 814.21,538.6 	
		"/>
	<polygon fill="#22B573" stroke="#000000" stroke-miterlimit="10" points="786.12,538.6 789.32,499.97 814.21,505.34 814.21,538.6 	
		"/>
	<polygon fill="#22B573" stroke="#000000" stroke-miterlimit="10" points="756.25,538.6 772.67,496.47 789.32,499.97 786.12,538.6 	
		"/>
	<polygon fill="#22B573" stroke="#000000" stroke-miterlimit="10" points="731.92,503 761.4,480.58 772.67,496.47 756.25,538.6 	"/>
	<polygon fill="#22B573" stroke="#000000" stroke-miterlimit="10" points="680.3,450.85 695.07,472.34 668.96,490.64 656.56,471.15 
			"/>
	<polygon fill="#22B573" stroke="#000000" stroke-miterlimit="10" points="709.84,494.49 695.07,472.34 668.96,490.64 
		683.07,512.43 	"/>
	<polygon fill="#22B573" stroke="#000000" stroke-miterlimit="10" points="697.51,533.86 724.34,515.86 709.84,494.49 
		683.07,512.43 	"/>
	<polygon fill="#22B573" stroke="#000000" stroke-miterlimit="10" points="711.95,555.95 739.37,537.48 724.34,515.86 
		697.51,533.86 	"/>
	<polygon fill="#22B573" stroke="#000000" stroke-miterlimit="10" points="754.01,558.85 739.37,537.48 711.95,555.95 
		726.05,576.65 	"/>
	<polygon fill="#22B573" stroke="#000000" stroke-miterlimit="10" points="698.89,594.78 726.05,576.65 711.95,555.95 
		685.24,574.41 	"/>
	<polygon fill="#22B573" stroke="#000000" stroke-miterlimit="10" points="670.6,552.45 685.24,574.41 711.95,555.95 697.51,533.86 
			"/>
	<polygon fill="#22B573" stroke="#000000" stroke-miterlimit="10" points="656.56,530.89 670.6,552.45 697.51,533.86 683.07,512.43 
			"/>
	<polygon fill="#22B573" stroke="#000000" stroke-miterlimit="10" points="641.92,509.59 668.96,490.64 683.07,512.43 
		656.56,530.89 	"/>
	<polygon fill="#22B573" stroke="#000000" stroke-miterlimit="10" points="631.24,492.38 641.92,509.59 668.96,490.64 
		656.56,471.15 	"/>
	<polygon fill="#22B573" stroke="#000000" stroke-miterlimit="10" points="665.07,568.87 643.9,583.11 665.07,616.93 687.62,601.7 	
		"/>
	<polygon fill="#22B573" stroke="#000000" stroke-miterlimit="10" points="643.11,631.08 665.07,616.93 643.9,583.11 621.55,597.95 
			"/>
	<polygon fill="#22B573" stroke="#000000" stroke-miterlimit="10" points="622.74,645.02 643.11,631.08 621.55,597.95 
		601.37,611.59 	"/>
	<polygon fill="#22B573" stroke="#000000" stroke-miterlimit="10" points="577.64,626.82 601.37,611.59 622.74,645.02 
		595.24,656.89 	"/>
	<polygon fill="#22B573" stroke="#000000" stroke-miterlimit="10" points="570.52,668.16 564.58,648.58 569.33,635.33 
		577.64,626.82 595.24,656.89 	"/>
	<polygon fill="#22B573" stroke="#000000" stroke-miterlimit="10" points="536.1,682.95 529.37,651.55 564.58,648.58 570.52,668.16 
			"/>
	<polygon fill="#22B573" stroke="#000000" stroke-miterlimit="10" points="533.73,618.12 529.37,651.55 564.58,648.58 
		569.33,635.33 	"/>
	<polygon fill="#22B573" stroke="#000000" stroke-miterlimit="10" points="555.88,592.01 533.73,618.12 569.33,635.33 
		577.64,626.82 	"/>
	<polygon fill="#22B573" stroke="#000000" stroke-miterlimit="10" points="578.63,577.57 555.88,592.01 577.64,626.82 
		601.37,611.59 	"/>
	<polygon fill="#22B573" stroke="#000000" stroke-miterlimit="10" points="599.2,563.73 578.63,577.57 601.37,611.59 621.55,597.95 
			"/>
	<polygon fill="#22B573" stroke="#000000" stroke-miterlimit="10" points="621.55,548.96 599.2,563.73 621.55,597.95 643.9,583.11 	
		"/>
	<polygon fill="#22B573" stroke="#000000" stroke-miterlimit="10" points="641.92,535.9 621.55,548.96 643.9,583.11 665.07,568.87 	
		"/>
	<polygon fill="#22B573" stroke="#000000" stroke-miterlimit="10" points="710.89,600.91 732.98,634.24 758.89,619.64 
		735.95,585.04 	"/>
	<polygon fill="#22B573" stroke="#000000" stroke-miterlimit="10" points="761.4,568.87 735.95,585.04 758.89,619.64 782.26,605.79 
			"/>
	<path fill="#22B573" stroke="#000000" stroke-miterlimit="10" d="M792.65,554.13c-0.79,0.23-15.03,4.71-15.03,4.71l-16.22,10.02
		l20.87,36.92l20.14-12.89L792.65,554.13z"/>
	<polygon fill="#22B573" stroke="#000000" stroke-miterlimit="10" points="822.91,590.03 822.91,552.21 798.98,552.21 
		792.65,554.13 802.41,592.9 809.26,590.23 	"/>
	<polygon fill="#22B573" stroke="#000000" stroke-miterlimit="10" points="852.19,588.85 822.91,590.03 822.91,552.21 
		844.08,552.21 	"/>
	<polygon fill="#22B573" stroke="#000000" stroke-miterlimit="10" points="852.19,621.68 853.31,594.25 852.19,588.85 
		809.26,590.23 809.26,599.73 804.12,610.8 	"/>
	<polygon fill="#22B573" stroke="#000000" stroke-miterlimit="10" points="802.41,624.47 802.41,639.45 830.89,660.65 
		839.59,652.08 848.3,634.24 	"/>
	<polygon fill="#22B573" stroke="#000000" stroke-miterlimit="10" points="792.65,652.08 802.41,639.45 830.89,660.65 
		800.16,680.96 783.95,653.79 	"/>
	<polygon fill="#22B573" stroke="#000000" stroke-miterlimit="10" points="776.56,653.79 783.95,653.79 800.16,680.96 
		776.56,697.04 756.25,665.4 	"/>
	<polygon fill="#22B573" stroke="#000000" stroke-miterlimit="10" points="902.89,650.1 883.9,682.54 852.19,654.12 860.16,638.1 	
		"/>
	<polygon fill="#22B573" stroke="#000000" stroke-miterlimit="10" points="946.14,663.42 933.49,689.4 893.13,666.77 902.89,650.1 	
		"/>
	<polygon fill="#22B573" stroke="#000000" stroke-miterlimit="10" points="913.97,714.19 933.49,689.4 893.13,666.77 883.9,682.54 	
		"/>
	<polygon fill="#22B573" stroke="#000000" stroke-miterlimit="10" points="893.13,729.62 913.97,714.19 883.9,682.54 868.73,697.86 
			"/>
	<polygon fill="#22B573" stroke="#000000" stroke-miterlimit="10" points="846.71,714.42 868.73,697.86 893.13,729.62 
		873.09,745.84 	"/>
	<polygon fill="#22B573" stroke="#000000" stroke-miterlimit="10" points="824.03,730.41 846.71,714.42 873.09,745.84 
		850.67,762.52 	"/>
	<polygon fill="#22B573" stroke="#000000" stroke-miterlimit="10" points="802.41,745.57 824.03,730.41 850.67,762.52 
		830.89,779.33 	"/>
	<polygon fill="#22B573" stroke="#000000" stroke-miterlimit="10" points="778.21,762.52 821.13,787.64 830.89,779.33 
		802.41,745.57 	"/>
	<polygon fill="#22B573" stroke="#000000" stroke-miterlimit="10" points="753.35,730.41 778.21,762.52 797.26,749.18 
		773.13,715.51 	"/>
	<polygon fill="#22B573" stroke="#000000" stroke-miterlimit="10" points="795.81,699.71 773.13,715.51 797.26,749.18 
		819.12,733.85 	"/>
	<polygon fill="#22B573" stroke="#000000" stroke-miterlimit="10" points="817.44,685.37 795.81,699.71 819.12,733.85 
		841.62,718.01 	"/>
	<polygon fill="#22B573" stroke="#000000" stroke-miterlimit="10" points="838.27,670.74 817.44,685.37 841.62,718.01 
		861.62,703.21 	"/>
	<polygon fill="#22B573" stroke="#000000" stroke-miterlimit="10" points="852.19,654.12 838.27,670.74 861.62,703.21 883.9,682.54 
			"/>
	<polygon fill="#22B573" stroke="#000000" stroke-miterlimit="10" points="809.66,886.67 809.66,842.89 794.43,837.69 781.57,876.1 
			"/>
	<polygon fill="#22B573" stroke="#000000" stroke-miterlimit="10" points="809.66,797.1 809.66,842.89 771.81,829.97 793.44,789.81 
			"/>
	<polygon fill="#22B573" stroke="#000000" stroke-miterlimit="10" points="773.13,774.71 793.44,789.81 771.81,829.97 
		745.04,810.45 	"/>
	<polygon fill="#22B573" stroke="#000000" stroke-miterlimit="10" points="757.84,759.42 773.13,774.71 745.04,810.45 
		735.02,802.34 723.02,786.19 	"/>
	<polygon fill="#22B573" stroke="#000000" stroke-miterlimit="10" points="741.88,737.92 757.84,759.42 723.02,786.19 
		707.33,762.05 	"/>
	<polygon fill="#22B573" stroke="#000000" stroke-miterlimit="10" points="751.9,865.67 781.57,876.1 794.43,837.69 771.81,829.97 	
		"/>
	<polygon fill="#22B573" stroke="#000000" stroke-miterlimit="10" points="727.51,850.67 751.9,865.67 771.81,829.97 752.43,816.35 
			"/>
	<polygon fill="#22B573" stroke="#000000" stroke-miterlimit="10" points="706.41,831.68 727.51,850.67 752.43,816.35 
		735.02,802.34 	"/>
	<polygon fill="#22B573" stroke="#000000" stroke-miterlimit="10" points="687.55,808.01 706.41,831.68 735.02,802.34 
		721.23,783.43 	"/>
	<polygon fill="#22B573" stroke="#000000" stroke-miterlimit="10" points="673.18,786.19 687.55,808.01 721.23,783.43 
		707.33,762.05 	"/>
	<polygon fill="#22B573" stroke="#000000" stroke-miterlimit="10" points="719.46,885.88 725.79,863.99 701.79,843.42 
		682.27,862.18 703.64,886.67 	"/>
	<polygon fill="#22B573" stroke="#000000" stroke-miterlimit="10" points="655.37,836.16 682.27,862.18 701.79,843.42 
		679.24,818.76 	"/>
	<polygon fill="#22B573" stroke="#000000" stroke-miterlimit="10" points="662.76,791.86 627.42,808.01 655.37,836.16 
		679.24,818.76 	"/>
	<path fill="#22B573" stroke="#000000" stroke-miterlimit="10" d="M664.34,886.67c0.4,0,39.3,0,39.3,0l-27.35-30.28l-20.91,21.32
		L664.34,886.67z"/>
	<polygon fill="#22B573" stroke="#000000" stroke-miterlimit="10" points="634.54,858.45 655.37,836.16 676.28,856.39 655.37,877.7 
			"/>
	<polygon fill="#22B573" stroke="#000000" stroke-miterlimit="10" points="620.96,845.4 634.54,858.45 655.37,836.16 627.42,808.01 
			"/>
	<polygon fill="#22B573" stroke="#000000" stroke-miterlimit="10" points="586.41,844.87 620.96,845.4 627.42,808.01 582.98,829.97 
			"/>
</g>
</svg>
