<?xml version="1.0" encoding="utf-8"?>
<!-- Generator: Adobe Illustrator 27.2.0, SVG Export Plug-In . SVG Version: 6.00 Build 0)  -->
<svg version="1.1" id="Слой_1" xmlns="http://www.w3.org/2000/svg" xmlns:xlink="http://www.w3.org/1999/xlink" x="0px" y="0px"
	 viewBox="0 0 100 100" enable-background="new 0 0 100 100" xml:space="preserve">
<g>
	<path fill="#FFFFFF" d="M93.93,100.11H73.57c-0.51,0-0.92-0.41-0.92-0.92c0-0.51,0.41-0.92,0.92-0.92h20.36
		c0.64,0,1.17-0.52,1.17-1.17v-3.98c0-0.64-0.52-1.17-1.17-1.17H6.32c-0.64,0-1.17,0.52-1.17,1.17v3.98c0,0.64,0.52,1.17,1.17,1.17
		h60.85c0.51,0,0.92,0.41,0.92,0.92c0,0.51-0.41,0.92-0.92,0.92H6.32c-1.65,0-3-1.34-3-3v-3.98c0-1.65,1.34-3,3-3h87.61
		c1.65,0,3,1.34,3,3v3.98C96.93,98.77,95.59,100.11,93.93,100.11z"/>
	<path fill="#FFFFFF" d="M86.12,91.97c-0.51,0-0.92-0.41-0.92-0.92V57.26c0-0.51,0.41-0.92,0.92-0.92s0.92,0.41,0.92,0.92v33.79
		C87.03,91.56,86.62,91.97,86.12,91.97z"/>
	<path fill="#FFFFFF" d="M13.84,91.97c-0.51,0-0.92-0.41-0.92-0.92V49.54c0-0.51,0.41-0.92,0.92-0.92s0.92,0.41,0.92,0.92v41.51
		C14.75,91.56,14.34,91.97,13.84,91.97z"/>
	<path fill="#FFFFFF" d="M91.04,54.71L50.12,13.79L9.2,54.71l-6.92-6.9L50.12,0l47.82,47.82L91.04,54.71z M4.87,47.82l4.32,4.31
		L50.12,11.2l40.92,40.92l4.31-4.31L50.12,2.59L4.87,47.82z"/>
	<polygon fill="#FFFFFF" points="87.2,37.46 85.37,37.46 85.37,19.06 76.35,19.06 76.35,26.6 74.52,26.6 74.52,17.23 87.2,17.23 	
		"/>
	<path fill="#FFFFFF" d="M47.39,62.5l-1.47-0.54l0.11-0.78l2.94-13.98h-9.36l6.75-18.91h10.55l-5.42,12.43h8.95L47.39,62.5z
		 M42.22,45.36h9.02l-2.32,11.04l8.31-13.86h-8.52l5.42-12.43h-6.46L42.22,45.36z"/>
	<path fill="#FFFFFF" d="M51.15,85.21h-1.87c-3.22,0-5.83-2.62-5.83-5.83v-8.31h13.54v8.31C56.99,82.59,54.37,85.21,51.15,85.21z
		 M45.28,72.9v6.48c0,2.21,1.79,4,4,4h1.87c2.21,0,4-1.8,4-4V72.9H45.28z"/>
	<path fill="#FFFFFF" d="M53.79,72.9h-7.44v-6.53c0-0.51,0.41-0.92,0.92-0.92c0.51,0,0.92,0.41,0.92,0.92v4.7h3.78v-4.7
		c0-0.51,0.41-0.92,0.92-0.92c0.51,0,0.92,0.41,0.92,0.92V72.9z"/>
	<path fill="#FFFFFF" d="M50.22,91.97c-0.5,0-0.91-0.4-0.92-0.9l-0.11-6.76c-0.01-0.51,0.4-0.92,0.9-0.93
		c0.55,0.07,0.92,0.4,0.93,0.9l0.11,6.76c0.01,0.51-0.4,0.92-0.9,0.93C50.23,91.97,50.22,91.97,50.22,91.97z"/>
</g>
</svg>
