<?xml version="1.0" encoding="utf-8"?>
<!-- Generator: Adobe Illustrator 27.2.0, SVG Export Plug-In . SVG Version: 6.00 Build 0)  -->
<svg version="1.1" id="Слой_1" xmlns="http://www.w3.org/2000/svg" xmlns:xlink="http://www.w3.org/1999/xlink" x="0px" y="0px"
	 viewBox="0 0 100 100" enable-background="new 0 0 100 100" xml:space="preserve">
<g>
	<path fill="#FFFFFF" d="M95.61,99.48H67.89c-0.51,0-0.92-0.41-0.92-0.92c0-0.51,0.41-0.92,0.92-0.92h27.72
		c1.4,0,2.54-1.14,2.54-2.53s-1.14-2.53-2.54-2.53h-91c-1.4,0-2.53,1.14-2.53,2.53s1.14,2.53,2.53,2.53h57.11
		c0.51,0,0.92,0.41,0.92,0.92c0,0.51-0.41,0.92-0.92,0.92H4.61c-2.41,0-4.37-1.96-4.37-4.37s1.96-4.37,4.37-4.37h91
		c2.41,0,4.37,1.96,4.37,4.37S98.02,99.48,95.61,99.48z"/>
	<path fill="#FFFFFF" d="M53.69,92.57H7.39v-21.8l23.34-14.13l22.97,14.14V92.57z M9.22,90.73h42.63V71.81L30.72,58.8L9.22,71.81
		V90.73z"/>
	<path fill="#FFFFFF" d="M5.74,73.23c-1.3,0-2.58-0.65-3.31-1.84c-0.37-0.61-0.58-1.33-0.58-2.03c0-1.36,0.69-2.6,1.85-3.32
		l20.67-12.83c0,0,0,0,0,0l5.64-3.49c0.3-0.18,0.67-0.18,0.97,0l25.95,16.08c1.15,0.73,1.83,1.96,1.83,3.32c0,0.7-0.2,1.4-0.57,2.03
		c-1.15,1.83-3.54,2.39-5.35,1.27L30.5,58.57L7.79,72.64C7.15,73.04,6.44,73.23,5.74,73.23z M25.34,54.78L4.67,67.61
		c-0.61,0.38-0.98,1.04-0.98,1.76c0,0.37,0.11,0.74,0.3,1.06c0.59,0.96,1.86,1.25,2.83,0.66l23.19-14.37c0.3-0.18,0.67-0.18,0.97,0
		l22.83,14.15c0.95,0.59,2.22,0.29,2.82-0.66c0.2-0.33,0.3-0.7,0.3-1.07c0-0.72-0.36-1.38-0.97-1.76L30.5,51.59L25.34,54.78z"/>
	<path fill="#FFFFFF" d="M94.05,92.57H51.86V81.46h42.19V92.57z M53.69,90.73h38.51V83.3H53.69V90.73z"/>
	<path fill="#FFFFFF" d="M28.42,92.57H16.67c-0.51,0-0.92-0.41-0.92-0.92V73.53c0-0.51,0.41-0.92,0.92-0.92h11.75
		c0.51,0,0.92,0.41,0.92,0.92v18.12C29.34,92.16,28.93,92.57,28.42,92.57z M17.58,90.73h9.92V74.45h-9.92V90.73z"/>
	<path fill="#FFFFFF" d="M45.75,84.15H33.99c-0.51,0-0.92-0.41-0.92-0.92V72.99c0-0.51,0.41-0.92,0.92-0.92h11.75
		c0.51,0,0.92,0.41,0.92,0.92v10.24C46.67,83.74,46.26,84.15,45.75,84.15z M34.91,82.31h9.92v-8.4h-9.92V82.31z"/>
	<rect x="38.95" y="72.99" fill="#FFFFFF" width="1.84" height="10.24"/>
	<path fill="#FFFFFF" d="M78.34,83.3c-0.51,0-0.92-0.41-0.92-0.92V42.33c0-0.51,0.41-0.92,0.92-0.92c0.51,0,0.92,0.41,0.92,0.92
		v40.05C79.26,82.89,78.85,83.3,78.34,83.3z"/>
	<path fill="#FFFFFF" d="M78.34,64.09h-5.39c-0.32,0-0.62-0.17-0.79-0.45l-2.85-4.73c-0.26-0.43-0.12-1,0.31-1.26
		c0.43-0.26,1-0.12,1.26,0.31l2.58,4.28h4.87c0.51,0,0.92,0.41,0.92,0.92C79.26,63.68,78.85,64.09,78.34,64.09z"/>
	<path fill="#FFFFFF" d="M82.47,57.18h-4.12c-0.51,0-0.92-0.41-0.92-0.92c0-0.51,0.41-0.92,0.92-0.92h3.68l1.66-2.08
		c0.32-0.39,0.9-0.46,1.29-0.14c0.4,0.32,0.46,0.9,0.14,1.29l-1.94,2.42C83.01,57.06,82.75,57.18,82.47,57.18z"/>
	<path fill="#FFFFFF" d="M78.34,47.61c-0.2,0-0.39-0.06-0.56-0.19l-4.12-3.15c-0.4-0.31-0.48-0.88-0.17-1.29
		c0.31-0.41,0.89-0.48,1.29-0.17l4.12,3.15c0.4,0.31,0.48,0.88,0.17,1.29C78.89,47.49,78.62,47.61,78.34,47.61z"/>
	<path fill="#FFFFFF" d="M77.96,77.3c-9.24,0-15.45-9.43-15.45-23.46c0-14.36,6.35-30.37,15.45-30.37
		c9.06,0,16.08,16.32,16.08,30.37C94.05,69.96,85.71,77.3,77.96,77.3z M77.96,25.31c-7,0-13.62,13.86-13.62,28.53
		c0,12.93,5.47,21.62,13.62,21.62c6.86,0,14.25-6.77,14.25-21.62C92.21,39.45,85.15,25.31,77.96,25.31z"/>
	<path fill="#FFFFFF" d="M53.69,64.31h-1.84v-8.82h-14.7v-1.84h15.62c0.51,0,0.92,0.41,0.92,0.92V64.31z"/>
	<rect x="7.85" y="38.94" fill="#FFFFFF" width="1.84" height="25.04"/>
	<rect x="33.8" y="38.94" fill="#FFFFFF" width="1.84" height="14.18"/>
	<path fill="#FFFFFF" d="M53.38,48.58H34.72c-0.51,0-0.92-0.41-0.92-0.92c0-0.51,0.41-0.92,0.92-0.92h18.66
		c0.51,0,0.92,0.41,0.92,0.92C54.3,48.17,53.89,48.58,53.38,48.58z"/>
	<rect x="41.68" y="47.66" fill="#FFFFFF" width="1.84" height="6.91"/>
	<rect x="49.19" y="47.66" fill="#FFFFFF" width="1.84" height="6.91"/>
	<path fill="#FFFFFF" d="M7.05,40.31c-0.33,0-0.66-0.04-0.98-0.13c-0.97-0.26-1.78-0.88-2.28-1.76c-1.03-1.79-0.41-4.09,1.38-5.13
		l6.05-3.49c0.44-0.26,1-0.1,1.26,0.34c0.25,0.44,0.1,1-0.34,1.25l-6.05,3.49c-0.91,0.53-1.23,1.71-0.7,2.62
		c0.26,0.45,0.67,0.76,1.17,0.9c0.5,0.13,1.01,0.06,1.46-0.19l13.3-7.69c0.44-0.26,1-0.1,1.26,0.34c0.25,0.44,0.1,1-0.34,1.25
		L8.92,39.8C8.35,40.14,7.7,40.31,7.05,40.31z"/>
	<path fill="#FFFFFF" d="M27.47,28.96c-0.16,0-0.31-0.04-0.46-0.12l-4.28-2.47c-0.6-0.34-1.33-0.34-1.92,0l-4.26,2.47
		c-0.44,0.26-1,0.11-1.26-0.33c-0.25-0.44-0.1-1,0.33-1.26l4.26-2.47c1.16-0.67,2.6-0.67,3.76,0l4.28,2.47
		c0.44,0.25,0.59,0.81,0.34,1.25C28.09,28.8,27.78,28.96,27.47,28.96z"/>
	<path fill="#FFFFFF" d="M36.49,40.31c-0.64,0-1.28-0.16-1.87-0.5l-13.31-7.7c-0.44-0.25-0.59-0.81-0.33-1.25
		c0.25-0.44,0.81-0.59,1.26-0.34l13.31,7.7c0.92,0.53,2.09,0.21,2.62-0.7c0.26-0.45,0.33-0.97,0.2-1.47
		c-0.13-0.5-0.45-0.91-0.9-1.17l-14.73-8.51c-0.6-0.34-1.33-0.34-1.92,0l-4.26,2.47c-0.44,0.26-1,0.11-1.26-0.33
		c-0.25-0.44-0.1-1,0.33-1.26l4.26-2.47c1.16-0.67,2.6-0.67,3.76,0l14.73,8.51c0.87,0.5,1.49,1.31,1.75,2.28
		c0.26,0.97,0.12,1.99-0.38,2.85C39.06,39.64,37.79,40.31,36.49,40.31z"/>
	<path fill="#FFFFFF" d="M69.26,20.8H19.63c-0.47,0-0.87-0.36-0.91-0.83c-0.14-1.46,0.23-2.7,1.11-3.68
		c1.35-1.51,3.55-1.95,4.69-2.09c0.57-2.21,1.69-3.83,3.34-4.83c2.19-1.33,4.74-1.17,6.12-0.94c0.53-2.36,2.61-7.91,10.11-7.64
		c2.6,0.11,4.68,1.03,6.17,2.74c1.89,2.16,2.38,5.07,2.48,6.92c1.7-0.94,3.32-1.17,4.83-0.69c2.48,0.79,3.88,3.32,4.49,4.72
		c1.85-0.69,3.47-0.66,4.84,0.06c2.69,1.43,3.26,5.05,3.28,5.2c0.04,0.26-0.04,0.53-0.21,0.73C69.78,20.68,69.52,20.8,69.26,20.8z
		 M20.55,18.96h47.52c-0.31-0.92-0.92-2.2-2.06-2.8c-1.05-0.55-2.43-0.43-4.09,0.37c-0.24,0.11-0.52,0.12-0.76,0.01
		c-0.24-0.11-0.43-0.32-0.51-0.57c-0.01-0.04-1.16-3.66-3.66-4.46c-1.33-0.42-2.89,0.04-4.63,1.37c-0.29,0.22-0.68,0.25-1,0.08
		c-0.32-0.18-0.5-0.52-0.47-0.89c0-0.04,0.38-4.6-2.02-7.35c-1.15-1.31-2.78-2.02-4.85-2.1c-7.68-0.33-8.35,6.67-8.38,6.97
		c-0.02,0.27-0.17,0.53-0.4,0.68c-0.23,0.16-0.51,0.2-0.78,0.13c-0.03-0.01-3.24-0.93-5.65,0.54c-1.35,0.82-2.24,2.27-2.63,4.29
		c-0.08,0.43-0.45,0.73-0.89,0.74c-0.03,0-2.78,0.07-4.09,1.53C20.84,17.92,20.62,18.4,20.55,18.96z"/>
	<path fill="#FFFFFF" d="M21.78,48.57c-3.14,0-5.69-2.55-5.69-5.69c0-3.14,2.55-5.69,5.69-5.69s5.69,2.55,5.69,5.69
		C27.47,46.02,24.92,48.57,21.78,48.57z M21.78,39.03c-2.12,0-3.85,1.73-3.85,3.85c0,2.13,1.73,3.85,3.85,3.85s3.85-1.73,3.85-3.85
		C25.63,40.76,23.9,39.03,21.78,39.03z"/>
</g>
</svg>
