<?xml version="1.0" encoding="utf-8"?>
<!-- Generator: Adobe Illustrator 27.2.0, SVG Export Plug-In . SVG Version: 6.00 Build 0)  -->
<svg version="1.1" id="Слой_1" xmlns="http://www.w3.org/2000/svg" xmlns:xlink="http://www.w3.org/1999/xlink" x="0px" y="0px"
	 viewBox="0 0 100 100" enable-background="new 0 0 100 100" xml:space="preserve">
<g>
	<path fill="#FFFFFF" d="M99.44,80.43H81.4l-8.27-27.37l26.31-7.76V80.43z M83.01,78.25h14.25V48.21l-21.42,6.32L83.01,78.25z"/>
	<path fill="#FFFFFF" d="M13.71,80.43H0.37V45.19l21.28,7.94L13.71,80.43z M2.55,78.25h9.53L19,54.46L2.55,48.32V78.25z"/>
	<path fill="#FFFFFF" d="M27.61,84.09c-0.17,0-0.34-0.04-0.5-0.12l-13.73-7.06c-0.46-0.24-0.69-0.77-0.55-1.27l5.76-19.81
		c0.1-0.33,0.34-0.6,0.66-0.71c0.32-0.12,0.68-0.08,0.97,0.1l6.92,4.45c0.88,0.57,1.9,0.87,2.94,0.87h11.73
		c1.16,0,2.27,0.34,3.22,0.99l12.03,8.16c0.22,0.15,0.37,0.37,0.44,0.62c0.47,1.77,0.35,3.28-0.35,4.47
		c-0.67,1.13-1.87,1.94-3.46,2.32c-1.29,0.31-2.7,0.06-3.87-0.7l-5.26-3.43c-0.45-0.29-0.96-0.46-1.5-0.5l-1.31-0.08
		c-0.48-0.04-0.89,0.13-1.22,0.43L28.34,83.81C28.13,83.99,27.87,84.09,27.61,84.09z M15.18,75.38l12.27,6.3L39.1,71.19
		c0.77-0.69,1.79-1.05,2.81-0.98l1.32,0.08c0.91,0.06,1.8,0.35,2.56,0.85l5.25,3.43c0.67,0.43,1.46,0.58,2.17,0.41
		c0.7-0.17,1.64-0.54,2.1-1.32c0.35-0.6,0.43-1.41,0.21-2.41l-11.69-7.93c-0.59-0.4-1.29-0.62-2-0.62H30.1
		c-1.46,0-2.88-0.42-4.12-1.21l-5.7-3.66L15.18,75.38z"/>
	<path fill="#FFFFFF" d="M73.1,83.84l-1.37-1.69l8.19-6.62L75.1,59.59l-23.29,1.09l-5.59,3.48l-1.15-1.85l5.83-3.62
		c0.16-0.1,0.34-0.15,0.52-0.16l24.42-1.14c0.51-0.06,0.95,0.29,1.09,0.77l5.28,17.46c0.13,0.42-0.01,0.88-0.36,1.16L73.1,83.84z"/>
	<path fill="#FFFFFF" d="M49.45,100.11c0,0-0.01,0-0.01,0c-1.91-0.01-3.49-1.34-4.33-2.22c-1.73,0.92-3.35,1.12-4.84,0.59
		c-1.99-0.71-3.13-2.56-3.66-3.69c-2.08,0.33-3.65-0.04-4.69-1.11c-1.15-1.17-1.3-2.85-1.22-4.08c-1.5,0.09-2.64-0.3-3.43-1.16
		c-1.8-1.95-0.79-5.39-0.67-5.77l2.08,0.65c-0.21,0.67-0.62,2.78,0.19,3.65c0.54,0.59,1.66,0.53,2.61,0.34l8.43-7.77
		c0.44-0.4,1.13-0.38,1.54,0.06c0.19,0.21,0.29,0.47,0.29,0.74c0,0.3-0.12,0.59-0.35,0.8l-8.4,7.73c-0.16,0.85-0.28,2.49,0.51,3.29
		c0.71,0.72,2.11,0.63,3.25,0.39l8.16-8.1c0.43-0.43,1.12-0.42,1.54,0c0.21,0.21,0.32,0.49,0.32,0.77c0,0.28-0.11,0.56-0.32,0.77
		l-7.88,7.82c0.37,0.8,1.17,2.16,2.46,2.62c0.9,0.32,1.95,0.15,3.14-0.49c-0.17-1.26-0.23-3.67,1.3-5.11
		c1.2-1.14,3.04-1.35,5.43-0.62c0.26,0.08,0.49,0.25,0.62,0.49l2.21,3.76c0.6,1.01,0.53,2.28-0.16,3.23
		C52.36,99.3,50.98,100.11,49.45,100.11z M46.35,96.02c0.54,0.66,1.82,1.91,3.1,1.91c0,0,0,0,0,0c0.8,0,1.59-0.51,2.33-1.53
		c0.18-0.24,0.2-0.58,0.04-0.84l-1.99-3.38c-1.04-0.27-2.25-0.38-2.91,0.24C46.06,93.22,46.19,95.15,46.35,96.02z"/>
	<path fill="#FFFFFF" d="M57.87,98.41c-0.78,0-1.34-0.13-1.39-0.14l-0.29-0.07l-6.7-6.46l-0.02-0.43c-0.14-2.87,0.53-4.88,2-5.98
		c1.96-1.46,4.48-0.59,4.59-0.55l0.29,0.1l6.28,7.69l0.02,0.35c0.11,2.01-0.42,3.51-1.57,4.46C60.07,98.21,58.81,98.41,57.87,98.41z
		 M57.25,96.19c0.61,0.08,1.74,0.09,2.44-0.49c0.53-0.45,0.8-1.23,0.79-2.33l-5.41-6.62c-0.48-0.11-1.55-0.26-2.31,0.33
		c-0.77,0.58-1.16,1.86-1.13,3.69L57.25,96.19z"/>
	<path fill="#FFFFFF" d="M64.57,94.77c-1.69,0-3.24-0.7-3.48-0.81l-0.38-0.3l-5.08-6.22l0.01-0.4c0.06-2.56,0.83-4.3,2.29-5.16
		c2.23-1.32,5.07,0.1,5.19,0.16l0.36,0.29l5.53,6.99l0,0.38c-0.03,2.13-0.7,3.62-2,4.43C66.24,94.6,65.39,94.77,64.57,94.77z
		 M62.23,92.08c0.83,0.34,2.61,0.84,3.62,0.2c0.57-0.36,0.89-1.11,0.96-2.24l-4.88-6.17c-0.65-0.28-2.01-0.66-2.9-0.13
		c-0.85,0.51-1.13,1.82-1.2,2.95L62.23,92.08z"/>
	<path fill="#FFFFFF" d="M70.94,91.94c-1.22,0-2.46-0.55-3.35-1.54l-3.08-3.44c-1.17-1.31-1.68-3.02-1.42-4.7
		c0.3-1.86,1.08-3.18,2.27-3.82c1.21-0.65,2.75-0.56,4.57,0.27l0.24,0.11l5.34,6.9L75.56,86c0.21,1.48-0.2,4.56-3.27,5.7
		C71.86,91.86,71.4,91.94,70.94,91.94z M66.14,85.51l3.08,3.44c0.63,0.7,1.57,0.99,2.32,0.71c1.8-0.67,1.92-2.4,1.89-3.09
		l-4.64-5.98c-0.77-0.33-1.74-0.57-2.4-0.23c-0.71,0.38-1.02,1.43-1.15,2.25C65.09,83.61,65.42,84.7,66.14,85.51L66.14,85.51z"/>
	<path fill="#FFFFFF" d="M22.52,48.17v-6.78H0.37V30.03h22.15v-6.78l17.24,12.46L22.52,48.17z M2.55,39.21H24.7v4.7l11.34-8.2
		L24.7,27.5v4.7H2.55V39.21z"/>
	<path fill="#FFFFFF" d="M77.7,48.17L60.46,35.71L77.7,23.25v6.78h22.15v11.36H77.7V48.17z M64.18,35.71l11.34,8.2v-4.7h22.15V32.2
		H75.52v-4.7L64.18,35.71z"/>
	<rect x="88.44" y="40.29" fill="#FFFFFF" width="2.18" height="9.06"/>
	<polygon fill="#FFFFFF" points="90.62,31.1 88.44,31.1 88.44,2.18 27.75,2.18 12.65,18.3 12.65,31.1 10.48,31.1 10.48,17.44 
		26.81,0 90.62,0 	"/>
	<rect x="10.48" y="40.29" fill="#FFFFFF" width="2.18" height="10.23"/>
	<polygon fill="#FFFFFF" points="28.88,18.96 11.57,18.96 11.57,16.79 26.7,16.79 26.7,1.08 28.88,1.08 	"/>
	<path fill="#FFFFFF" d="M83.21,8.85H33.79c-0.6,0-1.09-0.49-1.09-1.09s0.49-1.09,1.09-1.09h49.41c0.6,0,1.09,0.49,1.09,1.09
		S83.81,8.85,83.21,8.85z"/>
	<path fill="#FFFFFF" d="M83.21,15.41H33.79c-0.6,0-1.09-0.49-1.09-1.09s0.49-1.09,1.09-1.09h49.41c0.6,0,1.09,0.49,1.09,1.09
		S83.81,15.41,83.21,15.41z"/>
	<path fill="#FFFFFF" d="M52.77,36.04h-4.51V29.3h4.53c1.16,0,2.21,0.63,2.67,1.6c0.27,0.56,0.4,1.15,0.4,1.75
		c0,0.63-0.14,1.24-0.43,1.82C54.96,35.42,53.92,36.04,52.77,36.04z M49.35,34.95h3.43c0.73,0,1.39-0.38,1.68-0.96
		c0.21-0.43,0.32-0.88,0.32-1.34c0-0.44-0.1-0.87-0.3-1.29c-0.28-0.59-0.94-0.97-1.68-0.97h-3.45V34.95z"/>
	<path fill="#FFFFFF" d="M49.35,46.01h-3.83v-2.29h-1.71v-3.49h1.71V38.7h-1.71v-3.75h1.71v-8.04l7.33,0.01
		c3.11,0.16,5.57,2.77,5.57,5.92c0,2.94-2.2,5.47-5.11,5.88l-3.96-0.03v1.54h4.14v3.49h-4.14V46.01z M46.61,44.92h1.65v-2.29h4.14
		v-1.31h-4.14V37.6l4.97,0.05c2.3-0.33,4.09-2.39,4.09-4.8c0-2.58-2-4.7-4.56-4.84L52.6,28l-6,0v8.04H44.9v1.57h1.71v3.72H44.9v1.31
		h1.71V44.92z"/>
</g>
</svg>
