<?xml version="1.0" encoding="utf-8"?>
<!-- Generator: Adobe Illustrator 27.2.0, SVG Export Plug-In . SVG Version: 6.00 Build 0)  -->
<svg version="1.1" id="Слой_1" xmlns="http://www.w3.org/2000/svg" xmlns:xlink="http://www.w3.org/1999/xlink" x="0px" y="0px"
	 viewBox="0 0 100 100" enable-background="new 0 0 100 100" xml:space="preserve">
<g>
	<path fill="#FFFFFF" stroke="#FFFFFF" stroke-miterlimit="10" d="M46.71,91.92c-17.22,0-30.99-4.25-32.66-4.79H2.08
		c-0.57,0-1.02-0.46-1.02-1.02V59.66c0-0.57,0.46-1.02,1.02-1.02l26.3,0.02c5.15-0.24,10.56,1.84,14.18,3.62
		c3.56,1.75,7.54,2.68,11.81,2.75c4.49,0.08,8.14,0.45,10.85,1.1c2.66,0.63,4.62,2.8,4.88,5.39c0.13,1.31-0.1,2.56-0.69,3.73
		c13.38-3.04,22.75-8.54,22.9-8.63c0.11-0.06,0.22-0.11,0.34-0.13c2.48-0.45,4.27-0.06,5.34,1.15c1.62,1.84,0.71,4.76,0.67,4.88
		c-0.05,0.16-0.14,0.3-0.26,0.42C83.12,87.97,63.31,91.92,46.71,91.92z M3.1,85.09h11.11c0.11,0,0.22,0.02,0.33,0.05
		c0.51,0.17,51.08,16.89,82.23-13.46c0.16-0.67,0.3-1.98-0.33-2.69c-0.67-0.75-2.11-0.71-3.26-0.52c-1.5,0.86-12.62,7-27.56,9.61
		c-1.04,0.25-2.28,0.43-3.66,0.56c-6.33,0.81-13.22,0.91-20.27-0.29c-0.54-0.09-0.91-0.59-0.84-1.13c0.07-0.54,0.55-0.92,1.09-0.9
		c6.99,0.53,14.66,0.68,19.64,0.31c1.51-0.19,2.98-0.42,4.42-0.69c0.4-0.14,0.69-0.3,0.83-0.47c0.95-1.17,1.37-2.43,1.24-3.76
		c-0.17-1.72-1.5-3.17-3.32-3.6c-1.77-0.42-5-0.94-10.41-1.04C49.76,67,45.49,66,41.65,64.11c-3.41-1.67-8.49-3.6-13.23-3.41
		L3.1,60.68V85.09z"/>
	<rect x="13.19" y="59.66" fill="#FFFFFF" stroke="#FFFFFF" stroke-miterlimit="10" width="2.05" height="26.45"/>
	<g>
		<path fill="#FFFFFF" d="M7.88,66.02"/>
		<g>
			<path fill="#FFFFFF" d="M7.88,67.02c1.29,0,1.29-2,0-2C6.59,65.02,6.59,67.02,7.88,67.02L7.88,67.02z"/>
		</g>
	</g>
	<path fill="#FFFFFF" stroke="#FFFFFF" stroke-miterlimit="10" d="M69.08,72.64c-0.37,0-0.72-0.2-0.9-0.54
		c-0.27-0.5-0.08-1.12,0.42-1.38l23.04-12.27l-14.23-7.94c-0.49-0.27-0.67-0.9-0.4-1.39c0.28-0.5,0.9-0.67,1.39-0.39l15.87,8.85
		c0.33,0.18,0.53,0.53,0.53,0.9s-0.21,0.72-0.54,0.89L69.56,72.52C69.41,72.6,69.24,72.64,69.08,72.64z"/>
	<path fill="#FFFFFF" stroke="#FFFFFF" stroke-miterlimit="10" d="M75.28,49.18c-0.17,0-0.34-0.04-0.5-0.13l-1.33-0.74
		c-0.49-0.28-0.67-0.9-0.39-1.39c0.28-0.5,0.9-0.67,1.39-0.39l1.33,0.74c0.49,0.28,0.67,0.9,0.39,1.39
		C75.99,48.99,75.64,49.18,75.28,49.18z"/>
	<path fill="#FFFFFF" stroke="#FFFFFF" stroke-miterlimit="10" d="M26.22,60.54c-0.37,0-0.73-0.2-0.91-0.55
		c-0.26-0.5-0.06-1.12,0.44-1.38l22.11-11.43c0.5-0.26,1.12-0.06,1.38,0.44c0.26,0.5,0.06,1.12-0.44,1.38L26.68,60.42
		C26.53,60.5,26.37,60.54,26.22,60.54z"/>
	
		<rect x="54.64" y="43.28" transform="matrix(0.4952 -0.8688 0.8688 0.4952 -25.2522 79.3504)" fill="#FFFFFF" stroke="#FFFFFF" stroke-miterlimit="10" width="2.05" height="36.24"/>
	
		<rect x="56.28" y="58.29" transform="matrix(0.8749 -0.4843 0.4843 0.8749 -19.9075 41.5665)" fill="#FFFFFF" stroke="#FFFFFF" stroke-miterlimit="10" width="28.45" height="2.05"/>
	<path fill="#FFFFFF" stroke="#FFFFFF" stroke-miterlimit="10" d="M42.1,64.22c-0.35,0-0.69-0.18-0.88-0.51
		c-0.28-0.49-0.12-1.11,0.37-1.4l12.7-7.43c0.49-0.28,1.11-0.12,1.4,0.37c0.29,0.49,0.12,1.11-0.37,1.4l-12.7,7.43
		C42.46,64.17,42.28,64.22,42.1,64.22z"/>
	<path fill="#FFFFFF" stroke="#FFFFFF" stroke-miterlimit="10" d="M82.95,65.25c-0.18,0-0.36-0.05-0.52-0.14l-15.34-9.13
		c-0.49-0.29-0.65-0.92-0.36-1.4c0.29-0.49,0.92-0.65,1.4-0.36l15.34,9.13c0.49,0.29,0.65,0.92,0.36,1.4
		C83.64,65.07,83.3,65.25,82.95,65.25z"/>
	<path fill="#FFFFFF" stroke="#FFFFFF" stroke-miterlimit="10" d="M92.7,68.51l-1.87-0.83c0.48-1.09,1.19-3.63,0.36-4.56
		c-0.56-0.63-2.01-0.62-4.09,0.04l-0.61-1.95c2.97-0.93,5.07-0.74,6.23,0.56C94.65,63.92,92.91,68.05,92.7,68.51z"/>
	<path fill="#FFFFFF" stroke="#FFFFFF" stroke-miterlimit="10" d="M61.25,59.76c-0.33,0-0.64-0.16-0.83-0.43L50.38,45.25
		c-5.81-3.72-9.29-10.06-9.29-16.98c0-4.47,1.43-8.71,4.15-12.26c0.34-0.45,0.98-0.53,1.43-0.19c0.45,0.34,0.53,0.98,0.19,1.43
		c-2.44,3.19-3.73,7-3.73,11.02c0,6.27,3.18,12.01,8.5,15.35c0.11,0.07,0.22,0.17,0.29,0.28l9.32,13.08l9.27-13
		c0.08-0.14,0.2-0.26,0.34-0.35c5.33-3.33,8.52-9.07,8.52-15.35c0-10-8.13-18.14-18.12-18.14c-4.34,0-8.55,1.56-11.83,4.4
		c-0.43,0.37-1.07,0.32-1.44-0.1c-0.37-0.43-0.32-1.07,0.1-1.44c3.66-3.16,8.33-4.9,13.17-4.9c11.12,0,20.16,9.06,20.16,20.19
		c0,6.91-3.47,13.24-9.29,16.97L62.08,59.33C61.89,59.6,61.58,59.76,61.25,59.76z"/>
	<path fill="#FFFFFF" stroke="#FFFFFF" stroke-width="0.75" stroke-miterlimit="10" d="M70.97,18.02"/>
	<polygon fill="#FFFFFF" stroke="#FFFFFF" stroke-miterlimit="10" points="65.78,28.22 59.02,28.22 59.02,18.2 65.8,18.2 
		65.8,19.73 60.55,19.73 60.55,26.68 65.78,26.68 	"/>
	<path fill="#FFFFFF" stroke="#FFFFFF" stroke-miterlimit="10" d="M69.71,25.89l-1.37-0.69c0.33-0.65,0.49-1.34,0.49-2.03
		c0-0.68-0.15-1.34-0.45-1.96l1.38-0.67c0.41,0.83,0.61,1.71,0.61,2.63C70.37,24.11,70.15,25.02,69.71,25.89z"/>
	<path fill="#FFFFFF" stroke="#FFFFFF" stroke-miterlimit="10" d="M65.77,28.22h-6.75V18.2h6.78c1.73,0,3.29,0.93,3.97,2.37
		c0.4,0.83,0.6,1.71,0.6,2.61c0,0.94-0.22,1.85-0.64,2.72C69.02,27.3,67.47,28.22,65.77,28.22z M60.55,26.68h5.22
		c1.12,0,2.14-0.58,2.58-1.47c0.32-0.65,0.48-1.33,0.48-2.04c0-0.67-0.15-1.33-0.45-1.96c-0.43-0.91-1.44-1.49-2.58-1.49h-5.25
		V26.68z"/>
	<path fill="#FFFFFF" stroke="#FFFFFF" stroke-miterlimit="10" d="M60.55,43.19h-5.66v-3.44h-2.58v-5.13h2.58v-2.41h-2.58v-5.52
		h2.58V14.62l10.99,0.02c4.66,0.24,8.34,4.13,8.34,8.84c0,4.39-3.29,8.17-7.66,8.78l-6.01-0.05v2.41h6.24v5.13h-6.24V43.19z
		 M56.42,41.65h2.6v-3.44h6.24v-2.07h-6.24v-5.49l7.44,0.07c3.5-0.5,6.22-3.62,6.22-7.25c0-3.9-3.04-7.11-6.92-7.31l-0.24-0.02
		l-9.09,0v12.07h-2.58v2.45h2.58v5.48h-2.58v2.07h2.58V41.65z"/>
</g>
</svg>
